<?xml version="1.0" encoding="UTF-8" standalone="no"?>
<!-- Created with Inkscape (http://www.inkscape.org/) -->

<svg
   xmlns:dc="http://purl.org/dc/elements/1.1/"
   xmlns:cc="http://creativecommons.org/ns#"
   xmlns:rdf="http://www.w3.org/1999/02/22-rdf-syntax-ns#"
   xmlns:svg="http://www.w3.org/2000/svg"
   xmlns="http://www.w3.org/2000/svg"
   xmlns:xlink="http://www.w3.org/1999/xlink"
   xmlns:sodipodi="http://sodipodi.sourceforge.net/DTD/sodipodi-0.dtd"
   xmlns:inkscape="http://www.inkscape.org/namespaces/inkscape"
   width="1195.2168"
   height="1015.2325"
   id="svg2"
   version="1.1"
   inkscape:version="0.48.4 r9939"
   sodipodi:docname="Mi tux - 01.svg"
   inkscape:export-filename="C:\Users\Mi-PC\Desktop\TUX\Mis tux\Openclipart SVG\Mi tux - 01.png"
   inkscape:export-xdpi="150.59837"
   inkscape:export-ydpi="150.59837">
  <title
     id="title3211">Mi tux - 01</title>
  <defs
     id="defs4">
    <linearGradient
       id="linearGradient3201">
      <stop
         style="stop-color:#1a1a1a;stop-opacity:1;"
         offset="0"
         id="stop3203" />
      <stop
         id="stop3209"
         offset="0.46625054"
         style="stop-color:#1a1a1a;stop-opacity:0.26428571;" />
      <stop
         style="stop-color:#ffffff;stop-opacity:0.79285717;"
         offset="0.72945648"
         id="stop3211" />
      <stop
         style="stop-color:#ffffff;stop-opacity:1;"
         offset="1"
         id="stop3205" />
    </linearGradient>
    <linearGradient
       id="linearGradient4042">
      <stop
         style="stop-color:#000000;stop-opacity:1;"
         offset="0"
         id="stop4044" />
      <stop
         id="stop4052"
         offset="0.24163581"
         style="stop-color:#000000;stop-opacity:0;" />
      <stop
         id="stop4050"
         offset="0.49869519"
         style="stop-color:#ffffff;stop-opacity:0.42446044;" />
      <stop
         style="stop-color:#ffffff;stop-opacity:0.09352518;"
         offset="0.80361253"
         id="stop4054" />
      <stop
         style="stop-color:#ffffff;stop-opacity:0.41726619;"
         offset="1"
         id="stop4046" />
    </linearGradient>
    <linearGradient
       id="linearGradient4030">
      <stop
         style="stop-color:#333333;stop-opacity:0.57857144;"
         offset="0"
         id="stop4032" />
      <stop
         id="stop4040"
         offset="0.46665731"
         style="stop-color:#000000;stop-opacity:0;" />
      <stop
         style="stop-color:#ffffff;stop-opacity:0.67142856;"
         offset="1"
         id="stop4034" />
    </linearGradient>
    <linearGradient
       id="linearGradient4004">
      <stop
         style="stop-color:#ff0000;stop-opacity:1;"
         offset="0"
         id="stop4006" />
      <stop
         style="stop-color:#ff0000;stop-opacity:0;"
         offset="1"
         id="stop4008" />
    </linearGradient>
    <inkscape:path-effect
       effect="spiro"
       id="path-effect4386"
       is_visible="true" />
    <linearGradient
       gradientTransform="scale(1.221941,0.81837)"
       y2="482.55939"
       x2="288.37628"
       y1="398.85422"
       x1="288.82358"
       gradientUnits="userSpaceOnUse"
       id="linearGradient1439"
       xlink:href="#linearGradient167" />
    <linearGradient
       gradientTransform="scale(1.218684,0.820557)"
       y2="485.69934"
       x2="285.45923"
       y1="410.46326"
       x1="284.68652"
       gradientUnits="userSpaceOnUse"
       id="linearGradient1437"
       xlink:href="#linearGradient162" />
    <linearGradient
       gradientTransform="scale(1.065499,0.938527)"
       y2="582.63507"
       x2="371.60889"
       y1="474.01779"
       x1="316.93988"
       gradientUnits="userSpaceOnUse"
       id="linearGradient1435"
       xlink:href="#linearGradient167" />
    <linearGradient
       gradientTransform="scale(0.999504,1.000496)"
       y2="710.97723"
       x2="230.53499"
       y1="570.41809"
       x1="223.10072"
       gradientUnits="userSpaceOnUse"
       id="linearGradient1433"
       xlink:href="#linearGradient167" />
    <linearGradient
       y2="704.73077"
       x2="182.24524"
       y1="587.23602"
       x1="117.88966"
       gradientTransform="scale(1.007724,0.992335)"
       gradientUnits="userSpaceOnUse"
       id="linearGradient1431"
       xlink:href="#linearGradient167" />
    <linearGradient
       gradientTransform="scale(1.009851,0.990245)"
       y2="737.8537"
       x2="203.12654"
       y1="630.30475"
       x1="218.11714"
       gradientUnits="userSpaceOnUse"
       id="linearGradient1429"
       xlink:href="#linearGradient162" />
    <linearGradient
       gradientTransform="scale(1.065499,0.938527)"
       y2="386.66583"
       x2="279.64313"
       y1="655.73102"
       x1="381.56607"
       gradientUnits="userSpaceOnUse"
       id="linearGradient1427"
       xlink:href="#linearGradient153" />
    <linearGradient
       gradientTransform="scale(1.011514,0.988617)"
       y2="737.41229"
       x2="212.5099"
       y1="657.11133"
       x1="236.25362"
       gradientUnits="userSpaceOnUse"
       id="linearGradient1425"
       xlink:href="#linearGradient162" />
    <linearGradient
       gradientTransform="scale(0.572667,1.746214)"
       y2="314.83911"
       x2="867.33453"
       y1="234.73897"
       x1="867.34546"
       gradientUnits="userSpaceOnUse"
       id="linearGradient1423"
       xlink:href="#linearGradient167" />
    <linearGradient
       gradientTransform="scale(0.571707,1.749147)"
       y2="331.44858"
       x2="411.2215"
       y1="242.94365"
       x1="411.2215"
       gradientUnits="userSpaceOnUse"
       id="linearGradient1421"
       xlink:href="#linearGradient167" />
    <linearGradient
       gradientTransform="scale(1.077001,0.928504)"
       y2="488.48251"
       x2="323.2514"
       y1="435.26761"
       x1="322.48257"
       gradientUnits="userSpaceOnUse"
       id="linearGradient1419"
       xlink:href="#linearGradient167" />
    <linearGradient
       gradientTransform="scale(1.074798,0.930408)"
       y2="614.50439"
       x2="321.32224"
       y1="498.17776"
       x1="320.75104"
       gradientUnits="userSpaceOnUse"
       id="linearGradient1417"
       xlink:href="#linearGradient138" />
    <linearGradient
       gradientTransform="scale(0.649784,1.538974)"
       y2="324.03815"
       x2="377.48541"
       y1="419.78485"
       x1="375.17325"
       gradientUnits="userSpaceOnUse"
       id="linearGradient1415"
       xlink:href="#linearGradient153" />
    <linearGradient
       gradientTransform="scale(0.812855,1.230232)"
       y2="394.10361"
       x2="437.57941"
       y1="528.87177"
       x1="437.57941"
       spreadMethod="reflect"
       gradientUnits="userSpaceOnUse"
       id="linearGradient1413"
       xlink:href="#linearGradient153" />
    <linearGradient
       gradientTransform="scale(0.816497,1.224744)"
       y2="281.32513"
       x2="387.06866"
       y1="242.28218"
       x1="389.63535"
       gradientUnits="userSpaceOnUse"
       id="linearGradient1411"
       xlink:href="#linearGradient167" />
    <linearGradient
       y2="281.01636"
       x2="376.79556"
       y1="240.92712"
       x1="379.09573"
       gradientTransform="scale(0.816497,1.224744)"
       gradientUnits="userSpaceOnUse"
       id="linearGradient1409"
       xlink:href="#linearGradient167" />
    <linearGradient
       gradientTransform="scale(0.816497,1.224744)"
       y2="245.68338"
       x2="380.5517"
       y1="277.495"
       x1="381.38742"
       gradientUnits="userSpaceOnUse"
       id="linearGradient1407"
       xlink:href="#linearGradient153" />
    <linearGradient
       y2="243.91606"
       x2="380.27319"
       y1="278.60202"
       x1="378.93771"
       gradientTransform="scale(0.816497,1.224744)"
       gradientUnits="userSpaceOnUse"
       id="linearGradient1405"
       xlink:href="#linearGradient153" />
    <linearGradient
       gradientTransform="scale(1.116071,0.896001)"
       y2="330.09561"
       x2="297.0856"
       y1="237.93179"
       x1="303.01761"
       gradientUnits="userSpaceOnUse"
       id="linearGradient1403"
       xlink:href="#linearGradient138" />
    <linearGradient
       gradientTransform="scale(0.575262,1.738339)"
       y2="304.07886"
       x2="400.84448"
       y1="369.53015"
       x1="400.57785"
       gradientUnits="userSpaceOnUse"
       id="linearGradient1401"
       xlink:href="#linearGradient153" />
    <radialGradient
       gradientUnits="userSpaceOnUse"
       r="195.07191"
       fy="1219.4125"
       fx="446.77762"
       cy="1219.4125"
       cx="446.77762"
       gradientTransform="scale(1.045233,0.956725)"
       id="radialGradient1399"
       xlink:href="#linearGradient172" />
    <linearGradient
       gradientUnits="objectBoundingBox"
       y2="-0.675295"
       x2="0.19452"
       y1="1.2934099"
       x1="0.94027299"
       id="linearGradient178"
       xlink:href="#linearGradient153" />
    <radialGradient
       id="radialGradient176"
       xlink:href="#linearGradient172" />
    <radialGradient
       gradientUnits="objectBoundingBox"
       r="0.5"
       fy="0.5"
       fx="0.5"
       cy="0.5"
       cx="0.5"
       id="radialGradient171"
       xlink:href="#linearGradient172" />
    <linearGradient
       gradientUnits="objectBoundingBox"
       y2="0.97005898"
       x2="0.50800002"
       y1="0.191616"
       x1="0.50000501"
       id="linearGradient166"
       xlink:href="#linearGradient162" />
    <linearGradient
       gradientUnits="objectBoundingBox"
       y2="0.98367399"
       x2="0.46399999"
       y1="0.51020199"
       x1="0.60399801"
       id="linearGradient165"
       xlink:href="#linearGradient162" />
    <linearGradient
       gradientUnits="objectBoundingBox"
       y2="0.98558098"
       x2="0.41209599"
       y1="0.34872901"
       x1="0.50086302"
       id="linearGradient161"
       xlink:href="#linearGradient162" />
    <linearGradient
       gradientUnits="objectBoundingBox"
       y2="0.096282303"
       x2="0.49215299"
       y1="0.87917101"
       x1="0.46201"
       id="linearGradient159"
       xlink:href="#linearGradient153" />
    <linearGradient
       gradientUnits="objectBoundingBox"
       y2="0.136172"
       x2="0.49843901"
       y1="0.85418499"
       x1="0.51730198"
       id="linearGradient158"
       xlink:href="#linearGradient153" />
    <linearGradient
       gradientUnits="objectBoundingBox"
       y2="0.41252401"
       x2="0.49482101"
       y1="1.15284"
       x1="0.49180499"
       id="linearGradient157"
       xlink:href="#linearGradient153" />
    <linearGradient
       gradientUnits="objectBoundingBox"
       y2="0.23093501"
       x2="0.453989"
       y1="0.98882002"
       x1="0.43568701"
       id="linearGradient156"
       xlink:href="#linearGradient153" />
    <linearGradient
       spreadMethod="reflect"
       gradientUnits="objectBoundingBox"
       y2="0.40625"
       x2="0.5"
       y1="0.89842999"
       x1="0.5"
       id="linearGradient152"
       xlink:href="#linearGradient153" />
    <linearGradient
       gradientUnits="objectBoundingBox"
       y2="1.02569"
       x2="0.487055"
       y1="0.022184599"
       x1="0.433979"
       id="linearGradient151"
       xlink:href="#linearGradient167" />
    <linearGradient
       gradientTransform="matrix(-0.928523,0.283938,0.435332,0.943857,-1.91327e-7,5.49908e-8)"
       gradientUnits="objectBoundingBox"
       y2="0.94191301"
       x2="0.156323"
       y1="0.099496603"
       x1="-0.30509499"
       id="linearGradient150"
       xlink:href="#linearGradient167" />
    <linearGradient
       gradientUnits="objectBoundingBox"
       y2="0.94634098"
       x2="0.50400001"
       y1="0.131707"
       x1="0.5"
       id="linearGradient149"
       xlink:href="#linearGradient138" />
    <linearGradient
       gradientUnits="objectBoundingBox"
       y2="0.92820501"
       x2="0.51599997"
       y1="0.37435901"
       x1="0.50799799"
       id="linearGradient148"
       xlink:href="#linearGradient167" />
    <linearGradient
       gradientUnits="objectBoundingBox"
       y2="0.8125"
       x2="0.5"
       y1="0.0234362"
       x1="0.5"
       id="linearGradient147"
       xlink:href="#linearGradient167" />
    <linearGradient
       gradientUnits="objectBoundingBox"
       y2="0.71875"
       x2="0.57143003"
       y1="0.023441499"
       x1="0.57152498"
       id="linearGradient146"
       xlink:href="#linearGradient167" />
    <linearGradient
       gradientUnits="objectBoundingBox"
       y2="0.75857902"
       x2="0.86741799"
       y1="-0.036155298"
       x1="0.46741399"
       id="linearGradient145"
       xlink:href="#linearGradient167" />
    <linearGradient
       gradientUnits="objectBoundingBox"
       y2="0.94063401"
       x2="0.64553201"
       y1="0.059404202"
       x1="0.70346397"
       id="linearGradient144"
       xlink:href="#linearGradient167" />
    <linearGradient
       gradientUnits="objectBoundingBox"
       y2="0.93366498"
       x2="0.41365999"
       y1="0.028819799"
       x1="0.46557701"
       id="linearGradient143"
       xlink:href="#linearGradient167" />
    <linearGradient
       gradientUnits="objectBoundingBox"
       y2="0.94531101"
       x2="0.553922"
       y1="0.031192999"
       x1="0.55880702"
       id="linearGradient142"
       xlink:href="#linearGradient167" />
    <linearGradient
       gradientUnits="objectBoundingBox"
       y2="0.90125799"
       x2="0.417539"
       y1="0.020191999"
       x1="0.47424799"
       id="linearGradient141"
       xlink:href="#linearGradient138" />
    <linearGradient
       id="linearGradient138">
      <stop
         id="stop139"
         offset="0"
         style="stop-color:#ffffff;stop-opacity:0.8;" />
      <stop
         id="stop140"
         offset="1"
         style="stop-color:#ffffff;stop-opacity:0;" />
    </linearGradient>
    <linearGradient
       id="linearGradient153">
      <stop
         id="stop154"
         offset="0"
         style="stop-color:#ffeed7;stop-opacity:1;" />
      <stop
         id="stop155"
         offset="1"
         style="stop-color:#bdbfc2;stop-opacity:1;" />
    </linearGradient>
    <linearGradient
       id="linearGradient162">
      <stop
         id="stop163"
         offset="0"
         style="stop-color:#ffa63f;stop-opacity:1;" />
      <stop
         id="stop164"
         offset="1"
         style="stop-color:#ffff00;stop-opacity:1;" />
    </linearGradient>
    <linearGradient
       id="linearGradient167">
      <stop
         id="stop168"
         offset="0"
         style="stop-color:#ffffff;stop-opacity:0.65;" />
      <stop
         id="stop169"
         offset="1"
         style="stop-color:#ffffff;stop-opacity:0;" />
    </linearGradient>
    <linearGradient
       id="linearGradient172">
      <stop
         id="stop173"
         offset="0"
         style="stop-color:#3f2600;stop-opacity:0.6;" />
      <stop
         id="stop174"
         offset="1"
         style="stop-color:#3f2600;stop-opacity:0;" />
    </linearGradient>
    <linearGradient
       inkscape:collect="always"
       xlink:href="#linearGradient167"
       id="linearGradient4240"
       gradientUnits="userSpaceOnUse"
       gradientTransform="matrix(0.76723842,0,0,0.48747518,124.82791,144.92681)"
       x1="288.82358"
       y1="398.85422"
       x2="288.37628"
       y2="482.55939" />
    <linearGradient
       inkscape:collect="always"
       xlink:href="#linearGradient162"
       id="linearGradient4244"
       gradientUnits="userSpaceOnUse"
       gradientTransform="matrix(1.523355,0,0,1.0256962,-82.08409,-74.395491)"
       x1="284.68652"
       y1="410.46326"
       x2="285.45923"
       y2="485.69934" />
    <linearGradient
       inkscape:collect="always"
       xlink:href="#linearGradient167"
       id="linearGradient4247"
       gradientUnits="userSpaceOnUse"
       gradientTransform="matrix(0.37423628,0.15925268,-0.12093484,0.32235493,456.98391,411.40051)"
       x1="316.93988"
       y1="474.01779"
       x2="371.60889"
       y2="582.63507" />
    <linearGradient
       inkscape:collect="always"
       xlink:href="#linearGradient167"
       id="linearGradient4251"
       gradientUnits="userSpaceOnUse"
       gradientTransform="matrix(1.0038119,-0.05226007,-0.01740863,1.0462687,-23.34709,64.644209)"
       x1="223.10072"
       y1="570.41809"
       x2="230.53499"
       y2="710.97723" />
    <linearGradient
       inkscape:collect="always"
       xlink:href="#linearGradient167"
       id="linearGradient4254"
       gradientUnits="userSpaceOnUse"
       gradientTransform="matrix(-0.95239592,0.34640009,0.42082546,0.94872982,446.78991,28.767509)"
       x1="117.88966"
       y1="587.23602"
       x2="182.24524"
       y2="704.73077" />
    <linearGradient
       inkscape:collect="always"
       xlink:href="#linearGradient162"
       id="linearGradient4257"
       gradientUnits="userSpaceOnUse"
       gradientTransform="matrix(-1.1800109,0.4273134,0.47064661,1.1534176,460.80491,-120.71149)"
       x1="218.11714"
       y1="630.30475"
       x2="203.12654"
       y2="737.8537" />
    <linearGradient
       inkscape:collect="always"
       xlink:href="#linearGradient153"
       id="linearGradient4260"
       gradientUnits="userSpaceOnUse"
       gradientTransform="matrix(0.63738789,0.28617598,-0.22489266,0.57927107,433.02991,233.57351)"
       x1="381.56607"
       y1="655.73102"
       x2="279.64313"
       y2="386.66583" />
    <linearGradient
       inkscape:collect="always"
       xlink:href="#linearGradient162"
       id="linearGradient4263"
       gradientUnits="userSpaceOnUse"
       gradientTransform="matrix(1.2643925,0,0,1.2357712,-82.08409,-74.395491)"
       x1="236.25362"
       y1="657.11133"
       x2="212.5099"
       y2="737.41229" />
    <linearGradient
       inkscape:collect="always"
       xlink:href="#linearGradient167"
       id="linearGradient4266"
       gradientUnits="userSpaceOnUse"
       gradientTransform="matrix(0.71583375,0,0,2.1827675,-82.08409,-74.395491)"
       x1="867.34546"
       y1="234.73897"
       x2="867.33453"
       y2="314.83911" />
    <linearGradient
       inkscape:collect="always"
       xlink:href="#linearGradient167"
       id="linearGradient4269"
       gradientUnits="userSpaceOnUse"
       gradientTransform="matrix(0.71463375,0,0,2.1864338,-82.08409,-74.395491)"
       x1="411.2215"
       y1="242.94365"
       x2="411.2215"
       y2="331.44858" />
    <linearGradient
       inkscape:collect="always"
       xlink:href="#linearGradient167"
       id="linearGradient4272"
       gradientUnits="userSpaceOnUse"
       gradientTransform="matrix(1.2781848,0,0,0.99078805,-56.91509,-6.968491)"
       x1="322.48257"
       y1="435.26761"
       x2="323.2514"
       y2="488.48251" />
    <linearGradient
       inkscape:collect="always"
       xlink:href="#linearGradient138"
       id="linearGradient4275"
       gradientUnits="userSpaceOnUse"
       gradientTransform="matrix(1.3994837,0,0,1.1399824,-97.49609,-60.447491)"
       x1="320.75104"
       y1="498.17776"
       x2="321.32224"
       y2="614.50439" />
    <linearGradient
       inkscape:collect="always"
       xlink:href="#linearGradient153"
       id="linearGradient4279"
       gradientUnits="userSpaceOnUse"
       gradientTransform="matrix(0.9027839,-0.07217411,0.15730007,2.0039596,-159.12509,-72.828491)"
       x1="375.17325"
       y1="419.78485"
       x2="377.48541"
       y2="324.03815" />
    <linearGradient
       inkscape:collect="always"
       xlink:href="#linearGradient153"
       id="linearGradient4282"
       gradientUnits="userSpaceOnUse"
       gradientTransform="matrix(1.0160687,0,0,1.53779,-82.08409,-75.120491)"
       spreadMethod="reflect"
       x1="437.57941"
       y1="528.87177"
       x2="437.57941"
       y2="394.10361" />
    <linearGradient
       inkscape:collect="always"
       xlink:href="#linearGradient167"
       id="linearGradient4285"
       gradientUnits="userSpaceOnUse"
       gradientTransform="matrix(0.29141594,-0.03333031,0.05061034,0.48811437,181.79591,208.10051)"
       x1="389.63535"
       y1="242.28218"
       x2="387.06866"
       y2="281.32513" />
    <linearGradient
       inkscape:collect="always"
       xlink:href="#linearGradient167"
       id="linearGradient4288"
       gradientUnits="userSpaceOnUse"
       gradientTransform="matrix(-0.39218229,-0.02976458,-0.05731006,0.58249559,545.95791,180.12191)"
       x1="379.09573"
       y1="240.92712"
       x2="376.79556"
       y2="281.01636" />
    <linearGradient
       inkscape:collect="always"
       xlink:href="#linearGradient153"
       id="linearGradient4293"
       gradientUnits="userSpaceOnUse"
       gradientTransform="matrix(-1.4785291,0.04042534,0.03886407,1.9024316,939.92191,-191.66749)"
       x1="381.38742"
       y1="277.495"
       x2="380.5517"
       y2="245.68338" />
    <linearGradient
       inkscape:collect="always"
       xlink:href="#linearGradient153"
       id="linearGradient4296"
       gradientUnits="userSpaceOnUse"
       gradientTransform="matrix(1.0650795,-0.06167214,0.0944585,1.6443046,-122.78109,-84.507491)"
       x1="378.93771"
       y1="278.60202"
       x2="380.27319"
       y2="243.91606" />
    <linearGradient
       inkscape:collect="always"
       xlink:href="#linearGradient138"
       id="linearGradient4299"
       gradientUnits="userSpaceOnUse"
       gradientTransform="matrix(1.4132361,-0.0796503,-0.04119768,1.0713842,-65.39509,-32.651491)"
       x1="303.01761"
       y1="237.93179"
       x2="297.0856"
       y2="330.09561" />
    <linearGradient
       inkscape:collect="always"
       xlink:href="#linearGradient153"
       id="linearGradient4303"
       gradientUnits="userSpaceOnUse"
       gradientTransform="matrix(-0.96493873,-0.01291555,-0.03671998,2.5569228,906.04191,-199.90749)"
       x1="400.57785"
       y1="369.53015"
       x2="400.84448"
       y2="304.07886" />
    <radialGradient
       inkscape:collect="always"
       xlink:href="#linearGradient172"
       id="radialGradient4307"
       gradientUnits="userSpaceOnUse"
       gradientTransform="matrix(1.4818268,0,0,0.39679691,-306.33249,315.30351)"
       cx="446.77762"
       cy="1219.4125"
       fx="446.77762"
       fy="1219.4125"
       r="195.07191" />
    <linearGradient
       inkscape:collect="always"
       xlink:href="#linearGradient162-0"
       id="linearGradient4257-4"
       gradientUnits="userSpaceOnUse"
       gradientTransform="matrix(-1.1800109,0.4273134,0.47064661,1.1534176,460.80491,-120.71149)"
       x1="218.11714"
       y1="630.30475"
       x2="203.12654"
       y2="737.8537" />
    <linearGradient
       id="linearGradient162-0">
      <stop
         id="stop163-9"
         offset="0"
         style="stop-color:#ffa63f;stop-opacity:1;" />
      <stop
         id="stop164-4"
         offset="1"
         style="stop-color:#ffff00;stop-opacity:1;" />
    </linearGradient>
    <linearGradient
       inkscape:collect="always"
       xlink:href="#linearGradient4030"
       id="linearGradient4036"
       x1="21.59271"
       y1="168.72206"
       x2="181.87704"
       y2="-39.730644"
       gradientUnits="userSpaceOnUse" />
    <linearGradient
       inkscape:collect="always"
       xlink:href="#linearGradient4042"
       id="linearGradient4048"
       x1="288.11816"
       y1="92.176041"
       x2="476.84238"
       y2="-119.19018"
       gradientUnits="userSpaceOnUse" />
    <linearGradient
       inkscape:collect="always"
       xlink:href="#linearGradient3201"
       id="linearGradient3207"
       x1="647.78131"
       y1="59.928013"
       x2="730.83014"
       y2="-33.917221"
       gradientUnits="userSpaceOnUse" />
    <filter
       inkscape:collect="always"
       id="filter3978"
       x="-0.094618149"
       width="1.1892363"
       y="-0.16399169"
       height="1.3279834"
       color-interpolation-filters="sRGB">
      <feGaussianBlur
         inkscape:collect="always"
         stdDeviation="9.1440737"
         id="feGaussianBlur3980" />
    </filter>
  </defs>
  <sodipodi:namedview
     id="base"
     pagecolor="#ffffff"
     bordercolor="#666666"
     borderopacity="1.0"
     inkscape:pageopacity="0.0"
     inkscape:pageshadow="2"
     inkscape:zoom="0.42571722"
     inkscape:cx="-396.48021"
     inkscape:cy="231.81824"
     inkscape:document-units="px"
     inkscape:current-layer="layer11"
     showgrid="false"
     inkscape:window-width="1920"
     inkscape:window-height="1018"
     inkscape:window-x="-8"
     inkscape:window-y="-8"
     inkscape:window-maximized="1"
     showguides="true"
     inkscape:guide-bbox="true"
     fit-margin-top="0"
     fit-margin-left="0"
     fit-margin-right="0"
     fit-margin-bottom="0" />
  <metadata
     id="metadata7">
    <rdf:RDF>
      <cc:Work
         rdf:about="">
        <dc:format>image/svg+xml</dc:format>
        <dc:type
           rdf:resource="http://purl.org/dc/dcmitype/StillImage" />
        <dc:title>Mi tux - 01</dc:title>
        <cc:license
           rdf:resource="http://creativecommons.org/licenses/by/3.0/" />
        <dc:creator>
          <cc:Agent>
            <dc:title>Deiby Vargas</dc:title>
          </cc:Agent>
        </dc:creator>
        <dc:identifier>deiby-ybied.deviantart.com</dc:identifier>
      </cc:Work>
      <cc:License
         rdf:about="http://creativecommons.org/licenses/by/3.0/">
        <cc:permits
           rdf:resource="http://creativecommons.org/ns#Reproduction" />
        <cc:permits
           rdf:resource="http://creativecommons.org/ns#Distribution" />
        <cc:requires
           rdf:resource="http://creativecommons.org/ns#Notice" />
        <cc:requires
           rdf:resource="http://creativecommons.org/ns#Attribution" />
        <cc:permits
           rdf:resource="http://creativecommons.org/ns#DerivativeWorks" />
      </cc:License>
    </rdf:RDF>
  </metadata>
  <g
     inkscape:label="Pata 2"
     id="g4354"
     inkscape:groupmode="layer"
     style="display:inline"
     sodipodi:insensitive="true"
     transform="translate(235.80966,113.00126)">
    <path
       sodipodi:nodetypes="ssccsccs"
       inkscape:connector-curvature="0"
       id="path3208"
       d="m 290.9672,773.13941 c -29.19493,1.81036 -87.87133,32.86429 -111.50401,49.40703 -36.64796,25.65339 -0.55719,39.12077 30.50645,39.12077 33.73505,23.61436 65.28748,20.62212 108.28229,-9.47403 34.18896,-8.68445 77.70833,8.0158 77.70833,-1.29021 0,-28.0676 -56.29163,-36.58399 -39.90725,-63.91442 -6.33554,-19.73727 15.07132,-20.59357 -6.4379,-36.23861 -32.17204,-24.44787 -33.35576,20.82113 -58.64791,22.38947 z"
       style="opacity:0.73999999;fill:#000000;fill-opacity:1;stroke:#000000;stroke-width:5.88489103;stroke-miterlimit:4;stroke-opacity:1;stroke-dasharray:none;display:inline;filter:url(#filter3978)" />
    <path
       style="fill:#aa8800;fill-opacity:1;stroke:#806600;stroke-width:7;stroke-miterlimit:4;stroke-opacity:1;stroke-dasharray:none;display:inline"
       d="m 290.91442,734.63774 c -29.05456,2.57381 -87.44886,46.72362 -110.96792,70.24267 -36.47177,36.47178 -0.55451,55.61855 30.35978,55.61855 33.57286,33.57286 64.97359,29.31875 107.7617,-13.46936 34.02459,-12.34681 77.33473,11.39617 77.33473,-1.83432 0,-39.90409 -56.021,-52.01197 -39.71539,-90.86803 -6.30508,-28.06075 14.99886,-29.27817 -6.40695,-51.52094 -32.01736,-34.75788 -33.19539,29.60169 -58.36595,31.83143 z"
       id="path4356"
       inkscape:connector-curvature="0"
       sodipodi:nodetypes="ssccsccs" />
    <path
       style="fill:#806600;fill-opacity:1;stroke:none"
       d="m 217.4272,866.79299 c -19.40121,-30.56275 30.41281,-67.55016 48.15403,-73.99278 -25.64185,8.36485 -62.79229,34.79891 -60.63298,65.77136 l 1.61493,0.44043 z"
       id="path4531"
       inkscape:connector-curvature="0"
       sodipodi:nodetypes="ccccc" />
    <path
       style="opacity:0.1;fill:#806600;fill-opacity:1;stroke:none"
       d="m 309.87055,839.61456 c 9.47179,-9.06617 7.92844,-31.00491 -0.41523,-37.16437 15.83674,8.3046 22.35041,23.29334 31.12642,34.25765 -12.22229,-6.43123 -16.29331,-11.56286 -30.71119,2.90672 z"
       id="path4533"
       inkscape:connector-curvature="0"
       sodipodi:nodetypes="cccc" />
    <path
       sodipodi:type="arc"
       style="opacity:0.1;fill:#ffffff;fill-opacity:1;stroke:none"
       id="path4535"
       sodipodi:cx="274.6835"
       sodipodi:cy="847.1203"
       sodipodi:rx="16.002407"
       sodipodi:ry="38.758121"
       d="m 290.68591,847.1203 c 0,21.40552 -7.16452,38.75812 -16.00241,38.75812 -8.83788,0 -16.0024,-17.3526 -16.0024,-38.75812 0,-21.40552 7.16452,-38.75812 16.0024,-38.75812 8.83789,0 16.00241,17.3526 16.00241,38.75812 z"
       transform="matrix(0.72421559,0.68957363,-0.68957363,0.72421559,634.65373,27.765235)" />
    <path
       transform="matrix(-0.04982997,0.74499999,-0.56602324,0.52767922,690.3445,162.29401)"
       d="m 290.68591,847.1203 c 0,21.40552 -7.16452,38.75812 -16.00241,38.75812 -8.83788,0 -16.0024,-17.3526 -16.0024,-38.75812 0,-21.40552 7.16452,-38.75812 16.0024,-38.75812 8.83789,0 16.00241,17.3526 16.00241,38.75812 z"
       sodipodi:ry="38.758121"
       sodipodi:rx="16.002407"
       sodipodi:cy="847.1203"
       sodipodi:cx="274.6835"
       id="path4537"
       style="opacity:0.05;fill:#ffffff;fill-opacity:1;stroke:none"
       sodipodi:type="arc" />
    <path
       transform="matrix(-0.32850746,0.28857967,-0.28857967,-0.32850746,706.41869,1023.673)"
       d="m 290.68591,847.1203 c 0,21.40552 -7.16452,38.75812 -16.00241,38.75812 -8.83788,0 -16.0024,-17.3526 -16.0024,-38.75812 0,-21.40552 7.16452,-38.75812 16.0024,-38.75812 8.83789,0 16.00241,17.3526 16.00241,38.75812 z"
       sodipodi:ry="38.758121"
       sodipodi:rx="16.002407"
       sodipodi:cy="847.1203"
       sodipodi:cx="274.6835"
       id="path4550"
       style="opacity:0.075;fill:#ffffff;fill-opacity:1;stroke:none"
       sodipodi:type="arc" />
  </g>
  <g
     inkscape:groupmode="layer"
     id="layer11"
     inkscape:label="Bandera 01"
     style="display:inline"
     sodipodi:insensitive="true"
     transform="translate(235.80966,113.00126)">
    <path
       style="fill:#002255;stroke:#000000;stroke-width:1px;stroke-linecap:butt;stroke-linejoin:miter;stroke-opacity:1;display:inline"
       d="m -157.58528,-17.722685 6.59007,-5.453048 c 0,0 19.8195,-11.157642 20.18652,-11.377858 0.36703,-0.220217 28.40795,-10.643803 28.40795,-10.643803 l 14.6811,-2.78941 37.73045,-5.064982 25.98556,-1.027678 29.142,1.981949 12.55234,0.293623 32.37185,-3.596872 c 0,0 31.71119,-8.294825 32.81227,-8.515042 1.10108,-0.220216 16.36943,-3.083032 16.36943,-3.083032 0,0 12.69916,-0.367028 13.35981,-0.367028 0.66065,0 14.5343,6.973526 14.5343,6.973526 l 6.45969,11.744886 47.56678,-11.744886 c 0,0 28.40795,-7.854393 28.84838,-7.927798 0.44043,-0.07341 55.7148,-22.168472 55.7148,-22.168472 l 21.06739,-4.18412 11.01083,5.2852 12.03851,9.028884 53.51264,-7.340554 69.07461,-15.63538 49.03489,-8.88207 16.36944,6.31287 9.39591,9.68954 8.73526,13.653428 12.91937,17.397112 28.29783,6.459687 29.17871,-1.46811 28.33454,-8.294826 c 0,0 20.25992,-8.808669 26.93982,-12.699158 0.36703,0.0734 11.67148,19.746089 11.67148,19.746089 l 23.41637,30.830326 17.32371,17.837545 13.50662,8.221421 35.45487,17.2503 31.93141,21.28761 c 0,0 9.54272,10.49699 9.83634,10.86402 0.29362,0.36702 5.87244,7.19374 5.87244,7.19374 l 23.93021,32.73887 9.68953,15.635376 23.70997,22.46209 13.58007,11.37786 16.07578,10.27678 4.13824,4.75759 c 4.05872,2.98669 1.21731,0.39455 9.38674,5.87703 l 5.01911,4.02354 8.983,3.87673 15.73632,8.57469 17.64486,6.51933 18.67254,7.10657 -6.28536,7.10657 -18.03023,9.01512 -18.76428,7.98744 -15.82807,1.38094 -13.91952,1.08732 c 0,0 -21.65462,-6.16606 -21.94832,-6.09265 -0.2936,0.0734 -8.51502,-2.64261 -8.51502,-2.64261 l -7.10071,-3.54903 -8.1502,-1.98142 -14.18201,-8.62191 -39.25073,-14.15303 -11.42086,-2.72301 -27.28779,14.36534 -20.48014,18.4982 -14.6811,9.68953 -18.57161,6.6065 -20.40674,0.95427 c 0,0 -23.9302,0 -24.29723,0.14681 -0.36703,0.14681 -18.79182,4.03731 -18.79182,4.03731 l -25.39831,6.82671 -50.79663,30.75692 -15.41517,10.05656 -21.14079,8.44164 -19.8929,0 -5.57882,-5.2118 -33.39952,-27.74729 -22.68231,2.34898 -24.15042,7.56077 -35.38147,16.36943 -20.84717,11.45127 -34.4687,12.16396 -30.72809,5.50199 -39.44822,2.69908 -41.21301,10.38111 -35.19196,15.46786 -17.44027,12.45733 -0.41524,-20.45079 -4.46388,-32.8043 L 141.18308,271.07981 126.54572,251.77094 105.36825,234.43449 82.426,218.6552 70.2801,202.66829 56.99228,183.98229 46.9226,164.25818 36.02243,141.21211 30.72807,128.85859 10.06966,102.802 -10.27732,86.503664 l -34.88053,-22.31939 -22.31939,-15.46785 -18.78981,-16.40216 -16.60978,-20.45078 -10.48492,-11.41923 -15.05261,-10.58873 -20.34697,-5.709609 z"
       id="path3949-1"
       inkscape:connector-curvature="0"
       sodipodi:nodetypes="ccscccccccscsccccccccccccccccccccccccccccccccccccccccccccccccccccccccsccccccccccccccccccccccccccccccccccccccc" />
  </g>
  <g
     inkscape:groupmode="layer"
     id="layer9"
     inkscape:label="GUN linux"
     style="display:inline"
     sodipodi:insensitive="true"
     transform="translate(235.80966,113.00126)">
    <flowRoot
       xml:space="preserve"
       id="flowRoot4083"
       style="font-size:40px;font-style:normal;font-weight:normal;line-height:125%;letter-spacing:0px;word-spacing:0px;fill:#000000;fill-opacity:1;stroke:none;font-family:Sans"><flowRegion
         id="flowRegion4085"><rect
           id="rect4087"
           width="1066.3477"
           height="280.70523"
           x="-1044.755"
           y="255.0929" /></flowRegion><flowPara
         id="flowPara4089" /></flowRoot>    <g
       id="g4063">
      <path
         id="path4017"
         d="M 579.59375,-7.21875 585.25,-1.75 l 20.1875,19.59375 23.71875,19.25 14.6875,12.1875 17.46875,12.09375 31.125,24.90625 13.5,10.1875 10.15625,6.625 c 12.76288,-13.310829 19.11673,-27.021893 17.59375,-40.5 C 729.52495,25.755945 667.81171,0.18688631 579.59375,-7.21875 z"
         style="fill:#000000;fill-opacity:1;stroke:none"
         inkscape:connector-curvature="0" />
      <path
         id="path4030"
         d="m 192.5625,12.75 c -46.46766,23.258439 -73.4767,50.531743 -70.5,76.875 5.73715,50.77272 120.80908,80.18749 263.90625,70.0625 L 360,140.6875 314.75,105.8125 247.28125,57.65625 215.09375,33.34375 192.5625,12.75 z"
         style="fill:#000000;fill-opacity:1;stroke:none"
         inkscape:connector-curvature="0" />
      <path
         id="path4040"
         d="m 498.75,-29.4375 c -27.36452,0.152307 -56.29009,1.851039 -86.09375,5.21875 -80.81217,9.131496 -152.53472,28.8918593 -202.71875,53.3125 l 0.90625,0.84375 26.875,20.96875 27.09375,19.3125 31.375,22.5 31.03125,22.03125 27.09375,18.46875 18.5625,14.9375 32.71875,26.59375 3.1875,2.28125 c 8.68468,-0.70751 17.45434,-1.56156 26.3125,-2.5625 C 552.3428,161.22001 650.46888,125.60202 691.40625,85.8125 L 685.875,82.65625 667.1875,66.375 640.5,46.75 603.5625,15.28125 576.25,-9.09375 563.28125,-25.1875 561.5625,-26.875 c -19.69558,-1.792573 -40.73337,-2.685389 -62.8125,-2.5625 z"
         style="fill:#000000;fill-opacity:1;stroke:none"
         inkscape:connector-curvature="0" />
    </g>
    <g
       id="g4058">
      <path
         id="path3246"
         d="m 592.34375,5.15625 13.09375,12.6875 23.71875,19.25 14.6875,12.1875 17.46875,12.09375 31.125,24.90625 7.03125,5.3125 c 5.64438,-8.622041 8.2227,-17.329305 7.25,-25.9375 -3.36027,-29.737812 -48.13287,-51.381127 -114.375,-60.5 z"
         style="fill:#ffffff;fill-opacity:1;stroke:none"
         inkscape:connector-curvature="0" />
      <path
         id="path4032"
         d="m 202.875,22.1875 c -35.90754,19.866219 -56.31888,42.501763 -53.84375,64.40625 5.0084,44.32346 101.97225,70.66901 225,64.34375 L 360,140.6875 314.75,105.8125 247.28125,57.65625 215.09375,33.34375 202.875,22.1875 z"
         style="fill:#ffffff;fill-opacity:1;stroke:none"
         inkscape:connector-curvature="0" />
      <path
         id="path4042"
         d="m 497.875,-19.65625 c -26.60649,-0.100143 -54.92679,1.443642 -84.1875,4.75 -78.17385,8.8333725 -146.94474,28.606006 -192.625,52.8125 l 16.65625,13 27.09375,19.3125 31.375,22.5 31.03125,22.03125 27.09375,18.46875 18.5625,14.9375 24.875,20.21875 c 11.89965,-0.76992 23.99324,-1.83025 36.28125,-3.21875 C 550.8995,151.95055 646.83537,114.25134 675.875,73.9375 L 667.1875,66.375 640.5,46.75 603.5625,15.28125 576.25,-9.09375 l -4.46875,-5.5625 c -22.39353,-3.158311 -47.29976,-4.899857 -73.90625,-5 z"
         style="fill:#ffffff;fill-opacity:1;stroke:none"
         inkscape:connector-curvature="0" />
    </g>
    <path
       inkscape:connector-curvature="0"
       id="path4015"
       style="font-size:99.1140213px;font-style:normal;font-variant:normal;font-weight:bold;font-stretch:normal;text-align:center;line-height:125%;letter-spacing:0px;word-spacing:0px;text-anchor:middle;fill:#000000;fill-opacity:1;stroke:none;font-family:Ubuntu Mono;-inkscape-font-specification:Ubuntu Mono Bold"
       d="m 216.30977,66.373204 c -2.78518,0.835479 -4.97514,2.044464 -6.56989,3.626958 -1.59476,1.582608 -2.73884,3.460493 -3.43221,5.633669 -0.69338,2.173272 -0.93405,4.590689 -0.72199,7.252278 0.21206,2.661665 0.77374,5.511566 1.68506,8.54972 2.10708,7.024759 4.76622,11.866541 7.97743,14.525391 3.21116,2.65886 6.96938,3.3426 11.27462,2.05122 0.6953,-0.20855 1.4448,-0.46813 2.24852,-0.77864 0.80367,-0.31049 1.5353,-0.63313 2.19493,-0.96784 l -6.43599,-21.456623 11.67569,-3.502164 8.79885,29.334077 c -1.24024,0.92571 -3.23677,2.14614 -5.98958,3.66133 -2.75287,1.5152 -6.21818,2.89935 -10.3959,4.15247 -3.67173,1.10136 -7.17353,1.44438 -10.50541,1.02906 -3.33192,-0.41529 -6.42671,-1.59119 -9.28437,-3.52767 -2.85768,-1.93648 -5.4301,-4.64852 -7.71724,-8.13612 -2.28715,-3.48758 -4.18998,-7.76256 -5.70845,-12.824951 -1.49992,-5.000521 -2.15975,-9.614657 -1.97947,-13.84241 0.18029,-4.227667 1.02034,-7.980652 2.52013,-11.258965 1.49982,-3.278204 3.60616,-6.031037 6.31905,-8.258509 2.7129,-2.227347 5.84146,-3.872605 9.38569,-4.935775 2.27718,-0.682983 4.36992,-1.121234 6.27821,-1.314754 1.90824,-0.193377 3.59327,-0.267759 5.0551,-0.223153 1.46179,0.04475 2.69592,0.191928 3.70241,0.441538 1.00643,0.24975 1.76876,0.434767 2.28698,0.555048 l -0.24495,10.216523 c -1.65853,-0.468773 -3.60477,-0.74761 -5.83875,-0.836514 -2.23402,-0.08878 -4.42683,0.189489 -6.57846,0.834825 z" />
    <path
       style="font-size:99.1140213px;font-style:normal;font-variant:normal;font-weight:bold;font-stretch:normal;text-align:center;line-height:125%;letter-spacing:0px;word-spacing:0px;text-anchor:middle;fill:#000000;fill-opacity:1;stroke:none;font-family:Ubuntu Mono;-inkscape-font-specification:Ubuntu Mono Bold"
       d="M 247.15625,59.03125 258.71875,113.625 269.5,111.34375 261.03125,71.5 c 5.09562,5.87579 9.95682,11.772027 14.5625,17.71875 4.60563,5.946775 8.96464,11.95038 13.09375,18.03125 l 9.59375,-2.03125 -2.46875,-11.625 -13.40625,-10.125 0.21875,0.96875 c -0.37215,-0.513248 -0.93686,-1.227144 -1.34375,-1.78125 l -20.09375,-14 -9.34375,-6.25 -4.6875,-3.375 z"
       id="path4018"
       inkscape:connector-curvature="0" />
    <path
       inkscape:connector-curvature="0"
       id="path4020"
       style="font-size:99.1140213px;font-style:normal;font-variant:normal;font-weight:bold;font-stretch:normal;text-align:center;line-height:125%;letter-spacing:0px;word-spacing:0px;text-anchor:middle;fill:#000000;fill-opacity:1;stroke:none;font-family:Ubuntu Mono;-inkscape-font-specification:Ubuntu Mono Bold"
       d="m 334.51238,101.86015 c -3.93935,0.44514 -7.29968,0.27642 -10.08098,-0.50614 -2.78134,-0.78256 -5.07499,-2.102701 -6.88095,-3.960412 -1.80598,-1.857708 -3.20031,-4.194175 -4.18301,-7.009407 -0.98272,-2.815211 -1.67433,-5.995124 -2.07486,-9.539736 l -4.39572,-38.901385 12.21172,-1.379883 4.30674,38.113916 c 0.28934,2.560796 0.66353,4.695963 1.12256,6.405514 0.459,1.709592 1.05996,3.05459 1.8029,4.035012 0.7429,0.980435 1.69837,1.637518 2.86643,1.971247 1.16802,0.333763 2.60563,0.404181 4.31282,0.211263 1.70716,-0.192892 3.0928,-0.582328 4.15694,-1.168317 1.06408,-0.585953 1.86307,-1.457516 2.39694,-2.614698 0.53381,-1.157144 0.83415,-2.620733 0.90103,-4.390765 0.0668,-1.769996 -0.0444,-3.935377 -0.33376,-6.496164 l -4.29553,-38.014737 12.11255,-1.368676 4.39572,38.901385 c 0.40048,3.544618 0.43587,6.798681 0.10619,9.762189 -0.32978,2.963538 -1.20065,5.555965 -2.61262,7.777291 -1.41207,2.221336 -3.40289,4.025609 -5.97248,5.4128 -2.56967,1.387213 -5.8572,2.307113 -9.86263,2.759703 z" />
    <path
       inkscape:connector-curvature="0"
       id="path4022"
       style="font-size:99.1140213px;font-style:normal;font-variant:normal;font-weight:bold;font-stretch:normal;text-align:center;line-height:125%;letter-spacing:0px;word-spacing:0px;text-anchor:middle;fill:#000000;fill-opacity:1;stroke:none;font-family:Ubuntu Mono;-inkscape-font-specification:Ubuntu Mono Bold"
       d="m 374.33181,108.37998 -12.60546,1.42438 17.96095,-88.210372 12.41009,-1.402296 z" />
    <path
       inkscape:connector-curvature="0"
       id="path4024"
       style="font-size:99.1140213px;font-style:normal;font-variant:normal;font-weight:bold;font-stretch:normal;text-align:center;line-height:125%;letter-spacing:0px;word-spacing:0px;text-anchor:middle;fill:#000000;fill-opacity:1;stroke:none;font-family:Ubuntu Mono;-inkscape-font-specification:Ubuntu Mono Bold"
       d="m 445.41265,89.810602 -38.30929,4.32882 -6.88854,-60.96243 12.21173,-1.379883 5.75353,50.917745 26.09755,-2.948934 z" />
    <path
       inkscape:connector-curvature="0"
       id="path4026"
       style="font-size:99.1140213px;font-style:normal;font-variant:normal;font-weight:bold;font-stretch:normal;text-align:center;line-height:125%;letter-spacing:0px;word-spacing:0px;text-anchor:middle;fill:#000000;fill-opacity:1;stroke:none;font-family:Ubuntu Mono;-inkscape-font-specification:Ubuntu Mono Bold"
       d="m 469.22267,34.034354 c 0.26714,2.364459 -0.27629,4.321242 -1.63031,5.870351 -1.35405,1.549224 -3.08202,2.442562 -5.18392,2.680017 -2.09991,0.237335 -3.96664,-0.249815 -5.60014,-1.461455 -1.63353,-1.211527 -2.58388,-2.999517 -2.85104,-5.363976 -0.27442,-2.428455 0.24936,-4.415486 1.57135,-5.961097 1.32196,-1.545476 3.03291,-2.436891 5.13281,-2.674242 2.10191,-0.237439 3.98565,0.247788 5.65125,1.455681 1.66556,1.208028 2.63556,3.026266 2.91,5.454721 z m 24.53508,55.580497 c -2.36333,1.462315 -4.6204,2.531113 -6.77123,3.206393 -2.1509,0.675287 -4.14504,1.116735 -5.98243,1.324353 -3.15189,0.356153 -5.84671,0.195436 -8.08447,-0.482138 -2.2378,-0.67758 -4.0952,-1.814145 -5.57221,-3.409703 -1.47704,-1.595555 -2.61948,-3.610933 -3.42732,-6.046157 -0.80789,-2.435188 -1.39363,-5.261784 -1.75723,-8.479797 l -1.92532,-17.038699 -12.80083,1.44645 -1.13501,-10.044697 24.91636,-2.815463 3.23864,28.661333 c 0.31151,2.757147 1.05226,4.750953 2.22222,5.981429 1.1699,1.230492 2.93606,1.71227 5.29848,1.445315 1.11605,-0.1261 2.44535,-0.425972 3.98792,-0.899611 1.5425,-0.473609 3.24675,-1.280559 5.11277,-2.420849 z" />
    <path
       inkscape:connector-curvature="0"
       id="path4028"
       style="font-size:99.1140213px;font-style:normal;font-variant:normal;font-weight:bold;font-stretch:normal;text-align:center;line-height:125%;letter-spacing:0px;word-spacing:0px;text-anchor:middle;fill:#000000;fill-opacity:1;stroke:none;font-family:Ubuntu Mono;-inkscape-font-specification:Ubuntu Mono Bold"
       d="m 497.48852,36.451606 c 2.10123,-0.836033 4.7141,-1.696949 7.8386,-2.582747 3.12448,-0.885703 6.5582,-1.540048 10.30117,-1.963039 3.67682,-0.41542 6.78751,-0.251472 9.33208,0.491844 2.5445,0.743416 4.62833,1.971083 6.25145,3.683012 1.62306,1.712015 2.87671,3.831516 3.76094,6.358512 0.88415,2.527065 1.50421,5.365513 1.86017,8.515343 l 2.94928,26.10056 -12.11554,1.369014 -2.77098,-24.522631 c -0.48976,-4.334026 -1.33459,-7.397187 -2.53449,-9.189483 -1.19995,-1.792221 -3.30972,-2.517749 -6.32931,-2.176576 -0.91973,0.103957 -1.81924,0.238576 -2.69851,0.403848 -0.8793,0.165375 -1.80339,0.369716 -2.77226,0.613092 l 4.10636,36.340613 -12.11555,1.369015 z" />
    <path
       inkscape:connector-curvature="0"
       id="path4031"
       style="font-size:99.1140213px;font-style:normal;font-variant:normal;font-weight:bold;font-stretch:normal;text-align:center;line-height:125%;letter-spacing:0px;word-spacing:0px;text-anchor:middle;fill:#000000;fill-opacity:1;stroke:none;font-family:Ubuntu Mono;-inkscape-font-specification:Ubuntu Mono Bold"
       d="m 590.01844,82.575173 c -2.16541,0.843329 -4.80671,1.739929 -7.92391,2.689791 -3.11728,0.949881 -6.54738,1.63628 -10.29032,2.05922 -3.80911,0.430416 -6.98723,0.25786 -9.53436,-0.517686 -2.54718,-0.775532 -4.63599,-2.051848 -6.26643,-3.828946 -1.63047,-1.777095 -2.85709,-3.949364 -3.67989,-6.516824 -0.82283,-2.567438 -1.4123,-5.427103 -1.76844,-8.578986 l -2.91565,-25.803004 12.11553,-1.369014 2.73769,24.228076 c 0.48226,4.267961 1.34916,7.378342 2.60073,9.331152 1.25153,1.952844 3.35406,2.762398 6.30758,2.42865 1.8394,-0.207835 3.65925,-0.579885 5.45956,-1.116128 l -4.10636,-36.340614 12.21172,-1.379882 z" />
    <path
       inkscape:connector-curvature="0"
       id="path4034"
       style="font-size:99.1140213px;font-style:normal;font-variant:normal;font-weight:bold;font-stretch:normal;text-align:center;line-height:125%;letter-spacing:0px;word-spacing:0px;text-anchor:middle;fill:#000000;fill-opacity:1;stroke:none;font-family:Ubuntu Mono;-inkscape-font-specification:Ubuntu Mono Bold"
       d="m 622.71633,44.417806 4.7366,-9.673951 7.46615,6.830329 -4.52782,9.857216 c 1.78999,1.725608 3.56097,3.570023 5.31295,5.533252 1.7519,1.963278 3.43953,3.950031 5.06289,5.960269 1.62328,2.010267 3.10431,3.937672 4.44311,5.782213 1.33871,1.844561 2.4908,3.509812 3.45627,4.995754 l -12.60545,1.424372 c -2.15167,-3.147841 -4.26205,-5.935079 -6.33115,-8.361711 -2.06915,-2.426607 -4.01082,-4.600781 -5.82502,-6.522511 -1.67286,2.84946 -3.15579,5.610486 -4.44881,8.28308 -1.29307,2.672609 -2.58678,5.644613 -3.88114,8.916003 L 603.264,78.833212 c 0.77799,-1.95081 1.69408,-3.999425 2.74827,-6.145825 1.05419,-2.146399 2.17021,-4.333781 3.34807,-6.562145 1.17785,-2.228342 2.42325,-4.447089 3.7362,-6.65623 1.31294,-2.209099 2.58783,-4.314993 3.82469,-6.317683 l -18.78856,-20.618457 12.70464,-1.435581 z"
       sodipodi:nodetypes="ccccccccccccccssscccc" />
    <path
       style="fill:#000000;fill-opacity:1;stroke:none"
       d="m 629.74611,39.292377 4.62454,-9.175691 11.59807,-0.734056 -8.0746,16.222624 z"
       id="path4045"
       inkscape:connector-curvature="0"
       sodipodi:nodetypes="ccccc" />
    <path
       style="font-size:99.1140213px;font-style:normal;font-variant:normal;font-weight:bold;font-stretch:normal;text-align:center;line-height:125%;letter-spacing:0px;word-spacing:0px;text-anchor:middle;fill:#000000;fill-opacity:1;stroke:none;font-family:Ubuntu Mono;-inkscape-font-specification:Ubuntu Mono Bold"
       d="m 293.19667,51.825248 -10.78125,2.28125 7.78125,36.6875 13.375,9.968752 z m -29.96875,6.34375 -10.32781,3.939794 0.78125,3.65625 11.20281,6.153956 25.03125,18.65625 c -1.46503,-2.013429 -3.14683,-4.25807 -5.125,-6.875 -2.11229,-2.794235 -4.36857,-5.661158 -6.78125,-8.59375 -2.4127,-2.932488 -4.88979,-5.866888 -7.40625,-8.8125 -2.51646,-2.945502 -4.96095,-5.666807 -7.375,-8.125 z"
       id="path4047"
       inkscape:connector-curvature="0"
       sodipodi:nodetypes="cccccccccccccc" />
  </g>
  <g
     style="display:inline"
     inkscape:label="Bandera 02"
     id="g4000"
     inkscape:groupmode="layer"
     sodipodi:insensitive="true"
     transform="translate(235.80966,113.00126)">
    <path
       style="opacity:0.93000034;fill:url(#linearGradient4036);fill-opacity:1;stroke:#000000;stroke-width:1px;stroke-linecap:butt;stroke-linejoin:miter;stroke-opacity:1;display:inline"
       d="M 112.59375,-67.375 C 111.9331,-67.375 99.25,-67 99.25,-67 c 0,0 -15.27392,2.873534 -16.375,3.09375 -1.10108,0.220217 -32.8125,8.5 -32.8125,8.5 l -32.375,3.59375 -12.5625,-0.28125 -29.125,-2 -26,1.03125 -37.71875,5.0625 -14.6875,2.8125 c 0,0 -28.03922,10.404783 -28.40625,10.625 -0.36702,0.220216 -20.1875,11.375 -20.1875,11.375 l -6.59375,5.46875 8.84375,1.875 20.34375,5.6875 15.03125,10.59375 10.5,11.4375 16.59375,20.4375 18.8125,16.40625 22.3125,15.46875 34.875,22.3125 20.34375,16.3125 20.65625,26.03125 5.3125,12.375 L 46.9375,164.25 57,183.96875 l 13.28125,18.6875 12.15625,16 22.9375,15.78125 21.15625,17.34375 14.65625,19.3125 10.0625,21.59375 4.46875,32.78125 0.40625,20.46875 17.4375,-12.46875 L 208.75,318 l 41.21875,-10.375 39.46875,-2.6875 30.71875,-5.53125 34.46875,-12.15625 20.84375,-11.4375 35.375,-16.375 L 435,251.875 457.6875,249.53125 459,250.625 l 20.40625,1.34375 10.8125,3.1875 -1.34375,-2.03125 -21,-23.5 L 431.1875,197.46875 411.21875,180.3125 365.40625,143.15625 326.0625,114.25 283.9375,85.15625 240.625,53.03125 194.21875,15.4375 162.53125,-14.0625 134.125,-48.4375 134,-48.75 l -0.40625,0.09375 -6.46875,-11.75 c 0,0 -13.8706,-6.96875 -14.53125,-6.96875 z"
       id="path4016"
       inkscape:connector-curvature="0" />
    <path
       style="opacity:0.5;fill:url(#linearGradient4048);fill-opacity:1;stroke:#000000;stroke-width:1px;stroke-linecap:butt;stroke-linejoin:miter;stroke-opacity:1;display:inline"
       d="m 481.46875,-112.21875 -49.03125,8.875 -69.09375,15.65625 -53.5,7.34375 -12.03125,-9.03125 -11.03125,-5.3125 -21.0625,4.1875 c 0,0 -55.27832,22.11409 -55.71875,22.1875 -0.44043,0.0734 -28.84375,7.90625 -28.84375,7.90625 l -45.875,11.34375 16.59375,21.6875 35.90625,36.125 30.4375,26.46875 35.09375,27 42.875,31.125 39.4375,27.84375 46.40625,34.5625 36.625,29.6875 37.28125,35.90625 23.5625,21.1875 9.96875,10.5 4.5625,7.875 -2.28125,14.125 -0.0937,2.78125 5,4.6875 19.90625,0 21.125,-8.46875 L 553.125,264 l 50.78125,-30.78125 25.40625,-6.8125 c 0,0 18.41422,-3.88444 18.78125,-4.03125 0.36703,-0.14681 24.3125,-0.15625 24.3125,-0.15625 l 20.40625,-0.96875 18.87713,-8.4872 15.50687,-9.49207 21.13093,-17.60854 27.53491,-14.78111 24.77287,-0.86234 23.52104,6.82501 -0.9375,-3.125 -23.34375,-13.8125 -43,-28.4375 L 724.1875,107.6875 664.59375,65.625 614.875,26.09375 587.78125,0.4375 549.0625,-38.6875 520,-73.875 l -5.8125,-8.625 0.6875,-1.78125 -7.65625,-11.9375 -9.375,-9.6875 z"
       id="path4023"
       inkscape:connector-curvature="0"
       sodipodi:nodetypes="ccccccccccccccccccccccccccccccscccccccccccccccccccccc" />
    <path
       style="opacity:0.45;fill:url(#linearGradient3207);fill-opacity:1;stroke:#000000;stroke-width:1px;stroke-linecap:butt;stroke-linejoin:miter;stroke-opacity:1;display:inline"
       d="m 654.55855,-59.759185 c -0.36702,-0.07341 -12.92467,-21.777254 -12.92467,-21.777254 l -33.5218,15.279433 -18.07704,5.635377 -20.8631,1.883778 -20.54507,-1.77645 -20.78341,-4.885983 3.18779,6.244034 49.90625,53.90625 39.625,35.8125 69.875,53.28125 38.625,28.1875 72.53125,49.34375 21.77332,14.25427 10.16328,5.76567 10.72048,16.45063 19.79757,8.96702 29.36804,5.50037 c 0,0 19.44346,-3.65982 23.04031,-4.10025 0.14685,-0.0367 21.81752,-8.52578 31.0728,-15.06787 7.40671,-5.23543 7.65638,-8.77335 7.65638,-8.77335 l -32.92471,-12.89702 -30.1353,-15.83325 -23.45808,-15.49513 -20.69909,-17.23979 -23.6875,-22.46875 -9.6875,-15.625 -23.9375,-32.75 c 0,0 -5.58138,-6.82048 -5.875,-7.1875 C 784.48763,44.50797 774.9375,34 774.9375,34 L 743,12.71875 l -35.4375,-17.25 -13.5,-8.21875 -17.34375,-17.84375 -12.32925,-15.231063 c 0,0 -9.46392,-13.860972 -9.83095,-13.934372 z"
       id="path4002"
       inkscape:connector-curvature="0"
       sodipodi:nodetypes="cccccccccccccccccccscccccccccccccccc" />
  </g>
  <g
     style="display:inline"
     inkscape:label="Bandera 03"
     id="g3988"
     inkscape:groupmode="layer"
     sodipodi:insensitive="true"
     transform="translate(235.80966,113.00126)">
    <path
       sodipodi:nodetypes="cccsscssscsc"
       inkscape:connector-curvature="0"
       id="path3992"
       d="M 491.02652,255.50815 C 360,111.97897 215.34133,65.602748 127.06479,-59.03949 c -6.96665,-6.966646 -15.03155,-12.974466 -40.538236,-5.813422 0,0 -49.320774,15.034434 -81.6128585,12.775402 -30.5622455,-2.138019 -59.0618135,-2.111765 -85.9314995,2.756175 -26.869686,4.86794 -52.109486,14.577565 -76.152206,31.806286 51.92624,6.938575 57.13232,40.861994 86.769815,64.392118 29.6375,23.530123 63.7401139,34.905219 88.896242,66.041971 25.156129,31.13676 24.518076,55.73224 51.072924,90.0656 34.371409,44.43957 88.079079,38.37699 86.050759,142.33543 88.30875,-56.51165 113.41859,-28.23168 175.71977,-49.60038 62.30118,-21.3687 94.93935,-61.65799 159.68702,-40.21154 z"
       style="fill:none;stroke:#000000;stroke-width:4;stroke-linecap:round;stroke-linejoin:round;stroke-miterlimit:4;stroke-opacity:1;stroke-dasharray:none" />
    <path
       sodipodi:nodetypes="cscssccsssc"
       inkscape:connector-curvature="0"
       id="path3994"
       d="m 134.95443,-49.281247 c 57.03026,-10.024329 106.77018,-31.690569 132.79211,-41.410812 22.60834,-8.445133 30.6097,0.18753 41.14395,10.333428 41.32142,-2.541279 72.10049,-12.002148 106.87846,-19.452466 21.84611,-4.679983 42.7907,-10.951873 60.07448,-11.169563 16.48447,-0.20762 23.12735,0.64662 38.12534,27.234127 67.10454,98.186578 188.16578,180.084341 312.88667,260.877303 -78.77144,-31.99921 -88.8314,47.13155 -146.78587,44.32249 -83.75667,-4.05968 -117.75105,44.06977 -155.07318,57.80183 -11.13629,4.09741 -29.64732,5.40133 -32.53845,-1.45439 -3.36946,-7.98998 4.25403,-15.10367 -1.52172,-22.32901"
       style="fill:none;stroke:#000000;stroke-width:4;stroke-linecap:round;stroke-linejoin:round;stroke-miterlimit:4;stroke-opacity:1;stroke-dasharray:none" />
    <path
       sodipodi:nodetypes="cc"
       inkscape:connector-curvature="0"
       id="path3996"
       d="M 494.90013,280.57638 C 483.70312,267.55574 470.89056,258.41242 457.75692,250.03967"
       style="fill:none;stroke:#000000;stroke-width:4;stroke-linecap:round;stroke-linejoin:round;stroke-miterlimit:4;stroke-opacity:1;stroke-dasharray:none" />
    <path
       sodipodi:nodetypes="csczzzcc"
       inkscape:connector-curvature="0"
       id="path3998"
       d="m 825.72736,176.6363 c 18.73143,8.41581 0.46854,22.7521 57.36156,34.41683 23.0571,4.72738 65.43337,-12.7063 74.31825,-26.30265 C 913.01221,172.64686 865.25557,140.02886 841.08063,118.05652 816.90569,96.08418 796.15644,53.263895 771.93262,31.731604 747.70879,10.199313 712.32732,2.7608858 688.10349,-18.771405 663.87967,-40.303695 641.54352,-81.27983 641.54352,-81.27983 c -54.54739,30.339525 -82.64505,24.174388 -113.86533,15.559442"
       style="fill:none;stroke:#000000;stroke-width:4;stroke-linecap:round;stroke-linejoin:round;stroke-miterlimit:4;stroke-opacity:1;stroke-dasharray:none" />
    <path
       style="fill:none;stroke:#000000;stroke-width:4;stroke-linecap:round;stroke-linejoin:round;stroke-miterlimit:4;stroke-opacity:1;stroke-dasharray:none"
       d="m 850.6964,200.96253 c -28.03435,-7.31421 -44.69984,-26.49215 -75.80141,-28.83811"
       id="path3983"
       inkscape:connector-curvature="0"
       sodipodi:nodetypes="cc" />
    <path
       style="opacity:0.1;fill:#000000;stroke:#000000;stroke-width:1px;stroke-linecap:butt;stroke-linejoin:miter;stroke-opacity:1"
       d="m 246.93622,-75.440479 c 14.99219,-4.017145 37.1802,-26.116971 61.07341,0.880867 55.90517,44.78814 112.69773,87.801501 163.84116,142.113118 C 449.48517,53.31602 311.6055,-88.169967 246.93622,-75.440479 z"
       id="path3985"
       inkscape:connector-curvature="0"
       sodipodi:nodetypes="cccc" />
    <path
       style="opacity:0.1;fill:#ffffff;stroke:none"
       d="m 334.72925,134.20573 c 47.75332,32.75787 98.07444,74.31683 130.95547,108.6402 -35.46519,-14.27331 -74.16448,9.38379 -145.9302,50.79663 23.94254,-20.24545 70.63278,-49.58066 97.06633,-56.6635 25.85004,-6.9265 -10.47679,-43.37083 -82.0916,-102.77333 z"
       id="path3987"
       inkscape:connector-curvature="0"
       sodipodi:nodetypes="cccsc" />
    <path
       style="opacity:0.1;fill:#ffffff;stroke:none"
       d="M 536.15404,112.77132 645.38148,214.6582 c 29.99534,0.65393 49.99867,-0.57664 69.58844,-10.27677 -38.22151,11.34477 -65.13969,1.9619 -75.02595,-4.53806 -28.49395,-18.73401 -73.50355,-60.03274 -103.78993,-87.07205 z"
       id="path3989"
       inkscape:connector-curvature="0"
       sodipodi:nodetypes="cccsc" />
    <path
       style="opacity:0.1;fill:#000000;stroke:none"
       d="M -31.558576,61.381373 C 24.942092,83.477838 58.637937,149.9192 67.684841,177.85743 76.731745,205.79566 102.60195,226.24528 124.78095,235.99166 115.1963,225.3902 86.799583,213.27889 75.15924,182.63275 51.123947,119.35375 28.381731,81.985695 -31.558576,61.381373 z"
       id="path3991"
       inkscape:connector-curvature="0"
       sodipodi:nodetypes="czcsc" />
    <path
       style="opacity:0.1;fill:#000000;stroke:none"
       d="m 156.30721,-53.448328 c 10.86573,35.122825 57.39221,80.103884 92.39075,111.312304 l -17.1992,-10.393291 -26.57564,-21.59271 -29.8976,-29.6899761 -28.85948,-29.6899759 -12.24971,-16.817399 8.30488,0 z"
       id="path3993"
       inkscape:connector-curvature="0"
       sodipodi:nodetypes="ccccccccc" />
    <path
       style="opacity:0.10204085;fill:#000000;stroke:none"
       d="M 555.18179,-59.247131 C 587.86723,2.7855618 673.82926,67.834959 725.432,108.51161 L 699.89447,91.694216 674.77218,73.215839 648.19654,52.66124 616.84559,27.954197 584.04128,-2.3586457 550.82172,-36.408688 l -18.47837,-20.554599 -2.90671,-7.682022 14.11831,3.321956 z"
       id="path3995"
       inkscape:connector-curvature="0"
       sodipodi:nodetypes="cccccccccccc" />
    <path
       style="opacity:0.1;fill:#ffffff;stroke:none"
       d="m 934.819,181.2832 12.35352,5.29437 c -33.1258,23.22319 -64.7975,22.09016 -95.71384,8.30488 19.71313,7.88035 71.1,10.14379 83.36032,-13.59925 z"
       id="path3997"
       inkscape:connector-curvature="0"
       sodipodi:nodetypes="cccc" />
    <path
       style="opacity:0.5;fill:#000000;stroke:none"
       d="m 459.26033,250.21377 32.18144,25.2261 1.76479,-12.1459 -4.15244,-9.86205 -20.03555,-2.59528 z"
       id="path3999"
       inkscape:connector-curvature="0" />
    <path
       style="opacity:0.5;fill:#000000;stroke:none"
       d="m 781.28238,171.21352 7.37059,-2.18003 25.74515,3.21814 16.92121,7.4744 11.83447,17.44027 -4.25626,-0.31144 -11.83446,-4.98293 -21.69653,-11.00398 -18.68599,-6.74772 z"
       id="path4001"
       inkscape:connector-curvature="0" />
    <path
       style="opacity:0.05;fill:#ffffff;stroke:none"
       d="m 445.97251,-100.35633 c 33.60599,-8.42407 45.821,-16.25105 71.52585,34.984344 -17.5938,-24.663876 -28.69792,-42.450874 -71.52585,-34.984344 z"
       id="path4003"
       inkscape:connector-curvature="0"
       sodipodi:nodetypes="ccc" />
  </g>
  <g
     inkscape:groupmode="layer"
     id="layer3"
     inkscape:label="Cuerpo"
     style="display:inline"
     sodipodi:insensitive="true"
     transform="translate(235.80966,113.00126)">
    <path
       style="fill:#0c0c0c;fill-opacity:1;stroke:#000000;stroke-width:7;stroke-miterlimit:4;stroke-opacity:1;stroke-dasharray:none"
       d="m 360,220.21875 c -85.69621,0 -117.15625,61.0088 -117.15625,136.28125 0,53.59351 -10.84043,88.25 -40.25,88.25 -22.49115,0 -38.80154,-17.89665 -51.875,-66.6875 -13.08128,-48.81999 -36.86725,-40.37688 -46.0625,-11.78125 -35.859469,111.51677 21.82042,216.20261 86.28125,242.8125 -0.107,2.51234 -0.1875,5.02336 -0.1875,7.5625 0,95.06923 75.77295,172.15625 169.25,172.15625 93.47705,0 169.25,-77.08702 169.25,-172.15625 0,-12.78036 -1.37092,-25.2325 -3.96875,-37.21875 25.97197,-22.0315 32.7191,-53.11536 -2.4375,-89.9375 -39.85858,-41.74687 -45.6875,-68.33074 -45.6875,-133 0,-75.27245 -31.46003,-136.28125 -117.15625,-136.28125 z"
       id="path4521"
       inkscape:connector-curvature="0" />
    <path
       style="fill:#0c0c0c;fill-opacity:1;stroke:none"
       d="m 242.5,542.36218 -22,-37.5 46,-84.5 93.5,-14.49999 96,21.99999 26.5,42.5 -10,23 -64,28.5 -126.5,8 z"
       id="path4236"
       inkscape:connector-curvature="0" />
    <path
       transform="matrix(2.0252756,0,0,1.273009,-330.04085,121.4515)"
       d="m 424.28572,389.01218 c 0,74.68072 -37.4162,135.2214 -83.57143,135.2214 -46.15522,0 -83.57142,-60.54068 -83.57142,-135.2214 0,-74.68072 37.4162,-135.22141 83.57142,-135.22141 46.15523,0 83.57143,60.54069 83.57143,135.22141 z"
       sodipodi:ry="135.22141"
       sodipodi:rx="83.571426"
       sodipodi:cy="389.01218"
       sodipodi:cx="340.71429"
       id="path4165"
       style="fill:#0c0c0c;fill-opacity:1;stroke:none"
       sodipodi:type="arc" />
    <path
       style="fill:#0c0c0c;fill-opacity:1;stroke:none"
       d="m 424.28572,389.01218 c 0,74.68072 -37.4162,135.2214 -83.57143,135.2214 -46.15522,0 -83.57142,-60.54068 -83.57142,-135.2214 0,-74.68072 22.43449,-135.22141 83.57142,-135.22141 61.13694,0 83.57143,60.54069 83.57143,135.22141 z"
       id="path4171"
       inkscape:connector-curvature="0"
       sodipodi:nodetypes="sssss"
       transform="matrix(1.4017094,0,0,1.0079235,-117.58242,-35.582343)" />
    <path
       inkscape:connector-curvature="0"
       id="path4464"
       d="m 360,373.875 c -36.57308,18.45975 -82.46005,7.75733 -82.46005,45.0598 0,77.03677 -68.4099,75.0045 -68.4099,193.172 0,89.57686 67.54734,162.19315 150.86995,162.19315 83.32261,0 150.86995,-72.61629 150.86995,-162.19315 0,-118.1675 -68.4099,-116.40168 -68.4099,-193.172 0,-37.30247 -45.88697,-26.60005 -82.46005,-45.0598 z"
       style="opacity:0.75;fill:#1a1a1a;fill-opacity:1;stroke:none"
       sodipodi:nodetypes="csssssc" />
    <path
       style="fill:#f2f2f2;fill-opacity:1;stroke:none"
       d="m 360,386.875 c -35.66218,18 -82.91121,7.6505 -80.40625,43.9375 4.19712,60.79957 -68.65625,70.56067 -68.65625,187.3125 0,88.50368 66.73813,160.25 149.0625,160.25 82.32437,0 149.0625,-71.74632 149.0625,-160.25 0,-116.75183 -72.85337,-126.51293 -68.65625,-187.3125 C 442.91122,394.5255 395.66218,404.875 360,386.875 z"
       id="path4230"
       inkscape:connector-curvature="0" />
    <path
       sodipodi:type="arc"
       style="opacity:0.75;fill:#ffffff;fill-opacity:1;stroke:none"
       id="path4468"
       sodipodi:cx="347.14432"
       sodipodi:cy="657.0495"
       sodipodi:rx="104.64159"
       sodipodi:ry="104.64159"
       d="m 451.7859,657.0495 c 0,57.79195 -46.84963,104.64159 -104.64158,104.64159 -57.79195,0 -104.64159,-46.84964 -104.64159,-104.64159 0,-57.79195 46.84964,-104.64159 104.64159,-104.64159 57.79195,0 104.64158,46.84964 104.64158,104.64159 z"
       transform="matrix(1.1815716,0,0,1.0945862,-50.176061,-57.250507)" />
    <path
       transform="matrix(0.76108922,0,0,-0.64699226,95.79218,848.77289)"
       d="m 451.7859,657.0495 c 0,57.79195 -46.84963,104.64159 -104.64158,104.64159 -57.79195,0 -104.64159,-46.84964 -104.64159,-104.64159 0,-57.79195 46.84964,-104.64159 104.64159,-104.64159 57.79195,0 104.64158,46.84964 104.64158,104.64159 z"
       sodipodi:ry="104.64159"
       sodipodi:rx="104.64159"
       sodipodi:cy="657.0495"
       sodipodi:cx="347.14432"
       id="path4470"
       style="opacity:0.75;fill:#ececec;fill-opacity:1;stroke:none"
       sodipodi:type="arc" />
    <path
       style="fill:#0c0c0c;fill-opacity:1;stroke:none"
       d="M 269.59744,423.88976 290.56728,409.35621 322.33348,394.3036 360,381.63864 l 18.18385,5.81343 36.85294,13.18401 23.82797,15.00961 5.34295,10.52792 10.17349,-3.42577 -10.48492,-36.85294 -12.35352,-18.99743 -56.57705,-24.2918 -18.58219,-1.76479 -21.4889,8.82394 -53.98177,16.40216 -13.39164,27.92518 z"
       id="path4472"
       inkscape:connector-curvature="0"
       sodipodi:nodetypes="ccccccccccccccccc" />
    <path
       sodipodi:type="arc"
       style="opacity:0.02000002;fill:#ffffff;fill-opacity:1;stroke:none"
       id="path4474"
       sodipodi:cx="382.45245"
       sodipodi:cy="267.21658"
       sodipodi:rx="22.452465"
       sodipodi:ry="36.702766"
       d="m 404.90492,267.21658 c 0,20.27038 -10.05231,36.70277 -22.45247,36.70277 -12.40015,0 -22.45246,-16.43239 -22.45246,-36.70277 0,-20.27037 10.05231,-36.70276 22.45246,-36.70276 12.40016,0 22.45247,16.43239 22.45247,36.70276 z"
       transform="matrix(2.36004,0,0,0.67341539,-542.60318,65.074789)" />
    <path
       sodipodi:type="arc"
       style="opacity:0.01000001;fill:#ffffff;fill-opacity:1;stroke:none"
       id="path4476"
       sodipodi:cx="363.85791"
       sodipodi:cy="351.32581"
       sodipodi:rx="15.467854"
       sodipodi:ry="28.548054"
       d="m 379.32576,351.32581 c 0,15.76665 -6.92519,28.54805 -15.46785,28.54805 -8.54266,0 -15.46785,-12.7814 -15.46785,-28.54805 0,-15.76666 6.92519,-28.54806 15.46785,-28.54806 8.54266,0 15.46785,12.7814 15.46785,28.54806 z"
       transform="translate(-3.8580015,18)" />
  </g>
  <g
     inkscape:groupmode="layer"
     id="layer4"
     inkscape:label="Manos"
     style="display:inline"
     sodipodi:insensitive="true"
     transform="translate(235.80966,113.00126)">
    <path
       style="fill:#0c0c0c;stroke:none;display:inline"
       d="M 201.42858,612.71933 C 132.97619,593.79075 66.844125,483.83831 104.64286,366.29076 c 9.19525,-28.59563 32.99015,-37.03428 46.07143,11.78571 13.07346,48.79085 29.37665,66.68872 51.8678,66.68872 29.40957,0 40.27508,-34.6595 40.27508,-88.25301 77.02317,18.4483 195.32176,11.67202 234.2857,0 0,64.66926 5.85571,91.24599 45.71429,132.99286 98.57744,103.24753 -132.36358,161.34505 -192.50001,101.42857 -35.23493,-35.10607 -31.24664,-71.15074 12.50001,-51.78571 54.22452,24.00319 111.59493,-18.99823 128.57142,-70 L 457.94174,437.13614 360,391.86203 l -82.94915,36.11168 -61.09392,110.7792 z"
       id="path4177"
       inkscape:connector-curvature="0"
       sodipodi:nodetypes="csssccssscccccc" />
    <path
       style="opacity:0.05;fill:#ffffff;stroke:none"
       d="m 516.95412,489.10147 c 38.40732,91.68797 -59.96596,115.34225 -109.04803,115.34225 60.40194,5.56208 102.05351,-20.79757 115.05864,-39.00853 23.33641,-32.67776 9.02799,-57.45025 -6.01061,-76.33372 z"
       id="path4076"
       inkscape:connector-curvature="0"
       sodipodi:nodetypes="ccsc" />
    <path
       style="opacity:0.05;fill:#ffffff;stroke:none"
       d="m 102.98062,467.28279 c 14.55096,67.01458 31.12624,99.42726 86.37084,137.03066 -2.43066,-21.81615 2.82434,-50.23978 19.93173,-77.23546 -29.80418,37.1266 -27.49709,66.33434 -60.51527,28.08665 -17.83081,-20.6549 -27.32434,-33.71621 -45.7873,-87.88185 z"
       id="path4078"
       inkscape:connector-curvature="0"
       sodipodi:nodetypes="cccsc" />
    <path
       style="opacity:0.05;fill:#ffffff;stroke:none"
       d="m 454.10234,511.63099 c 27.47473,-23.24746 26.25416,-25.2708 3.52958,-53.25509 8.63951,16.38301 13.17411,22.58305 12.04208,29.27473 -0.47805,2.82591 -2.74737,11.15608 -15.57166,23.98036 z"
       id="path4080"
       inkscape:connector-curvature="0"
       sodipodi:nodetypes="ccsc" />
  </g>
  <g
     inkscape:groupmode="layer"
     id="layer5"
     inkscape:label="Cara"
     style="display:inline"
     sodipodi:insensitive="true"
     transform="translate(235.80966,113.00126)">
    <path
       sodipodi:type="arc"
       style="opacity:0.75;fill:#1a1a1a;fill-opacity:1;stroke:none"
       id="path4496"
       sodipodi:cx="427.25"
       sodipodi:cy="362.61218"
       sodipodi:rx="41.25"
       sodipodi:ry="59.5"
       d="m 468.5,362.61218 c 0,32.86095 -18.46825,59.5 -41.25,59.5 -22.78175,0 -41.25,-26.63905 -41.25,-59.5 0,-32.86094 18.46825,-59.5 41.25,-59.5 22.78175,0 41.25,26.63906 41.25,59.5 z"
       transform="matrix(-0.7877174,0,0,0.72362306,750.14052,90.674755)" />
    <path
       transform="matrix(-0.77376869,0,0,0.77194239,742.18092,83.028578)"
       d="m 468.5,362.61218 c 0,32.86095 -18.46825,59.5 -41.25,59.5 -22.78175,0 -41.25,-26.63905 -41.25,-59.5 0,-32.86094 18.46825,-59.5 41.25,-59.5 22.78175,0 41.25,26.63906 41.25,59.5 z"
       sodipodi:ry="59.5"
       sodipodi:rx="41.25"
       sodipodi:cy="362.61218"
       sodipodi:cx="427.25"
       id="path4498"
       style="fill:#ffffff;fill-opacity:1;stroke:none"
       sodipodi:type="arc" />
    <path
       transform="matrix(-0.51537153,0,0,0.50488685,629.31823,185.29339)"
       d="m 468.5,362.61218 c 0,32.86095 -18.46825,59.5 -41.25,59.5 -22.78175,0 -41.25,-26.63905 -41.25,-59.5 0,-32.86094 18.46825,-59.5 41.25,-59.5 22.78175,0 41.25,26.63906 41.25,59.5 z"
       sodipodi:ry="59.5"
       sodipodi:rx="41.25"
       sodipodi:cy="362.61218"
       sodipodi:cx="427.25"
       id="path4500"
       style="opacity:0.41632655;fill:#000000;fill-opacity:1;stroke:none"
       sodipodi:type="arc" />
    <path
       sodipodi:type="arc"
       style="fill:#000000;fill-opacity:1;stroke:none"
       id="path4502"
       sodipodi:cx="427.25"
       sodipodi:cy="362.61218"
       sodipodi:rx="41.25"
       sodipodi:ry="59.5"
       d="m 468.5,362.61218 c 0,32.86095 -18.46825,59.5 -41.25,59.5 -22.78175,0 -41.25,-26.63905 -41.25,-59.5 0,-32.86094 18.46825,-59.5 41.25,-59.5 22.78175,0 41.25,26.63906 41.25,59.5 z"
       transform="matrix(-0.48106005,0,0,0.47127341,614.65865,197.48203)" />
    <path
       sodipodi:nodetypes="cc"
       inkscape:connector-curvature="0"
       id="path4504"
       d="m 423.44319,367.14113 c 0.72234,-8.75904 -8.40885,-21.81021 -16.90393,-21.35348"
       style="opacity:0.081;fill:none;stroke:#ffffff;stroke-width:2.34156752;stroke-linecap:round;stroke-linejoin:round;stroke-miterlimit:4;stroke-opacity:1;stroke-dasharray:none" />
    <path
       transform="matrix(-1.3369958,0,0,1.4187652,833.01656,-156.36137)"
       d="m 328.27432,364.70084 c 0,2.34314 -1.8995,4.24264 -4.24264,4.24264 -2.34315,0 -4.24264,-1.8995 -4.24264,-4.24264 0,-2.34315 1.89949,-4.24264 4.24264,-4.24264 2.34314,0 4.24264,1.89949 4.24264,4.24264 z"
       sodipodi:ry="4.2426405"
       sodipodi:rx="4.2426405"
       sodipodi:cy="364.70084"
       sodipodi:cx="324.03168"
       id="path4506"
       style="fill:#ffffff;fill-opacity:1;stroke:none"
       sodipodi:type="arc" />
    <path
       sodipodi:type="arc"
       style="opacity:0.6;fill:#ffffff;fill-opacity:1;stroke:none"
       id="path4508"
       sodipodi:cx="324.03168"
       sodipodi:cy="364.70084"
       sodipodi:rx="4.2426405"
       sodipodi:ry="4.2426405"
       d="m 328.27432,364.70084 c 0,2.34314 -1.8995,4.24264 -4.24264,4.24264 -2.34315,0 -4.24264,-1.8995 -4.24264,-4.24264 0,-2.34315 1.89949,-4.24264 4.24264,-4.24264 2.34314,0 4.24264,1.89949 4.24264,4.24264 z"
       transform="matrix(-0.40051482,0,0,0.42500993,525.62994,216.82284)" />
    <path
       style="fill:#806600;fill-opacity:1;stroke:none"
       d="m 360,409.09375 c -19.76659,0 -78.30052,6.10194 -79.34375,20.15625 32.19755,8.62731 45.66726,39.03125 79.34375,39.03125 33.67649,0 47.1462,-30.40394 79.34375,-39.03125 C 438.30052,415.19569 379.76659,409.09375 360,409.09375 z"
       id="path4448"
       inkscape:connector-curvature="0" />
    <path
       transform="matrix(0.7877174,0,0,0.72362306,-31.945042,90.674755)"
       d="m 468.5,362.61218 c 0,32.86095 -18.46825,59.5 -41.25,59.5 -22.78175,0 -41.25,-26.63905 -41.25,-59.5 0,-32.86094 18.46825,-59.5 41.25,-59.5 22.78175,0 41.25,26.63906 41.25,59.5 z"
       sodipodi:ry="59.5"
       sodipodi:rx="41.25"
       sodipodi:cy="362.61218"
       sodipodi:cx="427.25"
       id="path4396"
       style="opacity:0.75;fill:#1a1a1a;fill-opacity:1;stroke:none"
       sodipodi:type="arc" />
    <path
       style="fill:#aa8800;fill-opacity:1;stroke:none"
       d="m 360,406.6875 c -21.5105,0 -85.20847,6.64321 -86.34375,21.9375 48.31164,10.74068 50.65804,37.34375 86.34375,37.34375 35.68571,0 38.03211,-26.60307 86.34375,-37.34375 C 445.20847,413.33071 381.5105,406.6875 360,406.6875 z"
       id="path4216"
       inkscape:connector-curvature="0" />
    <path
       sodipodi:type="arc"
       style="fill:#ffffff;fill-opacity:1;stroke:none"
       id="path4378"
       sodipodi:cx="427.25"
       sodipodi:cy="362.61218"
       sodipodi:rx="41.25"
       sodipodi:ry="59.5"
       d="m 468.5,362.61218 c 0,32.86095 -18.46825,59.5 -41.25,59.5 -22.78175,0 -41.25,-26.63905 -41.25,-59.5 0,-32.86094 18.46825,-59.5 41.25,-59.5 22.78175,0 41.25,26.63906 41.25,59.5 z"
       transform="matrix(0.77376869,0,0,0.77194239,-23.985449,83.028578)" />
    <path
       sodipodi:type="arc"
       style="opacity:0.41632655;fill:#000000;fill-opacity:1;stroke:none"
       id="path4438"
       sodipodi:cx="427.25"
       sodipodi:cy="362.61218"
       sodipodi:rx="41.25"
       sodipodi:ry="59.5"
       d="m 468.5,362.61218 c 0,32.86095 -18.46825,59.5 -41.25,59.5 -22.78175,0 -41.25,-26.63905 -41.25,-59.5 0,-32.86094 18.46825,-59.5 41.25,-59.5 22.78175,0 41.25,26.63906 41.25,59.5 z"
       transform="matrix(0.51537153,0,0,0.50488685,88.877242,185.29339)" />
    <path
       transform="matrix(0.48106005,0,0,0.47127341,103.53682,197.48203)"
       d="m 468.5,362.61218 c 0,32.86095 -18.46825,59.5 -41.25,59.5 -22.78175,0 -41.25,-26.63905 -41.25,-59.5 0,-32.86094 18.46825,-59.5 41.25,-59.5 22.78175,0 41.25,26.63906 41.25,59.5 z"
       sodipodi:ry="59.5"
       sodipodi:rx="41.25"
       sodipodi:cy="362.61218"
       sodipodi:cx="427.25"
       id="path4380"
       style="fill:#000000;fill-opacity:1;stroke:none"
       sodipodi:type="arc" />
    <path
       style="opacity:0.081;fill:none;stroke:#ffffff;stroke-width:2.34156752;stroke-linecap:round;stroke-linejoin:round;stroke-miterlimit:4;stroke-opacity:1;stroke-dasharray:none"
       d="m 294.75228,367.14113 c -0.72234,-8.75904 8.40885,-21.81021 16.90393,-21.35348"
       id="path4388"
       inkscape:connector-curvature="0"
       sodipodi:nodetypes="cc" />
    <path
       sodipodi:type="arc"
       style="fill:#ffffff;fill-opacity:1;stroke:none"
       id="path4392"
       sodipodi:cx="324.03168"
       sodipodi:cy="364.70084"
       sodipodi:rx="4.2426405"
       sodipodi:ry="4.2426405"
       d="m 328.27432,364.70084 c 0,2.34314 -1.8995,4.24264 -4.24264,4.24264 -2.34315,0 -4.24264,-1.8995 -4.24264,-4.24264 0,-2.34315 1.89949,-4.24264 4.24264,-4.24264 2.34314,0 4.24264,1.89949 4.24264,4.24264 z"
       transform="matrix(1.3369958,0,0,1.4187652,-114.82109,-156.36137)" />
    <path
       transform="matrix(0.40051482,0,0,0.42500993,192.56553,216.82284)"
       d="m 328.27432,364.70084 c 0,2.34314 -1.8995,4.24264 -4.24264,4.24264 -2.34315,0 -4.24264,-1.8995 -4.24264,-4.24264 0,-2.34315 1.89949,-4.24264 4.24264,-4.24264 2.34314,0 4.24264,1.89949 4.24264,4.24264 z"
       sodipodi:ry="4.2426405"
       sodipodi:rx="4.2426405"
       sodipodi:cy="364.70084"
       sodipodi:cx="324.03168"
       id="path4394"
       style="opacity:0.6;fill:#ffffff;fill-opacity:1;stroke:none"
       sodipodi:type="arc" />
    <path
       style="fill:#806600;fill-opacity:1;stroke:none"
       d="m 358.21875,365.6875 c -36.75931,1.08874 -34.21938,35.97069 -53.09375,39.625 -5.72431,1.1083 -14.45064,2.18003 -21.4375,7.3125 -6.98689,5.13242 -3.71875,2.1211 -3.71875,13.875 2.2096,8.24634 15.6532,-9.35791 49.125,6.5625 9.73365,4.62968 17.2751,8.78125 30.90625,8.78125 13.63115,0 21.1726,-4.15157 30.90625,-8.78125 33.4718,-15.92041 46.9154,1.68384 49.125,-6.5625 0,-11.7539 3.26814,-8.74258 -3.71875,-13.875 -6.98686,-5.13247 -15.71319,-6.2042 -21.4375,-7.3125 -19.17396,-3.71231 -16.24921,-39.625 -54.875,-39.625 -0.60353,0 -1.19777,-0.0173 -1.78125,0 z"
       id="path4440"
       inkscape:connector-curvature="0" />
    <path
       style="fill:#d4aa00;fill-opacity:1;stroke:none"
       d="m 360,367.65625 c -27.86719,0 -26.09026,15.37859 -50.15625,27.875 -5.62722,2.92197 -15.71449,2.38736 -23.3125,7.96875 -7.59801,5.58139 -13.5625,14.37433 -13.5625,27.15625 2.40287,8.96762 16.76625,-13.66148 53.4375,-0.5625 11.03832,3.94289 18.77036,9.5625 33.59375,9.5625 14.82339,0 22.55543,-5.61961 33.59375,-9.5625 36.67125,-13.09898 51.03463,9.53012 53.4375,0.5625 0,-12.78192 -5.96449,-21.57486 -13.5625,-27.15625 -7.59801,-5.58139 -17.71653,-5.04678 -23.34375,-7.96875 -24.06599,-12.49641 -22.25781,-27.875 -50.125,-27.875 z"
       id="path4213"
       inkscape:connector-curvature="0" />
    <path
       style="opacity:0.05;fill:#000000;fill-opacity:1;stroke:none"
       d="m 360,389.50962 c -20.23888,0 -18.95659,8.95441 -36.43488,15.2537 -14.29301,3.75083 -30.48655,5.56551 -30.72137,14.40834 1.74509,4.52039 16.11353,-4.78078 42.74666,1.82217 8.01665,1.98756 13.64385,4.80905 24.40959,4.80905 10.76574,0 16.39294,-2.82149 24.40959,-4.80905 26.63313,-6.60295 41.00157,2.69822 42.74666,-1.82217 -0.23482,-8.84283 -16.42836,-10.65751 -30.72137,-14.40834 -17.47829,-6.29929 -16.196,-15.2537 -36.43488,-15.2537 z"
       id="path4453"
       inkscape:connector-curvature="0" />
    <path
       sodipodi:nodetypes="sssss"
       inkscape:connector-curvature="0"
       id="path4462"
       d="m 350.05803,379.9586 c -0.19687,1.70117 -1.57417,2.92304 -3.07627,2.72911 -4.72809,-0.61041 -6.70019,1.94256 -6.50332,0.2414 0.19688,-1.70116 2.3641,-7.0283 7.21626,-6.40187 1.50211,0.19393 2.5602,1.7302 2.36333,3.43136 z"
       style="fill:#000000;fill-opacity:1;stroke:none" />
    <path
       style="fill:#554400;fill-opacity:1;stroke:none"
       d="m 349.24826,379.70096 c 0,1.51328 -1.22676,2.74004 -2.74004,2.74004 -4.76328,0 -6.42754,2.46074 -6.42754,0.94746 0,-1.51328 1.53926,-6.42754 6.42754,-6.42754 1.51328,0 2.74004,1.22676 2.74004,2.74004 z"
       id="path4442"
       inkscape:connector-curvature="0"
       sodipodi:nodetypes="sssss" />
    <path
       sodipodi:type="arc"
       style="opacity:0.2;fill:#806600;fill-opacity:1;stroke:none"
       id="path4458"
       sodipodi:cx="353.19983"
       sodipodi:cy="465.81711"
       sodipodi:rx="29.344931"
       sodipodi:ry="14.672465"
       d="m 382.54476,465.81711 c 0,8.10338 -13.13817,14.67246 -29.34493,14.67246 -16.20676,0 -29.34493,-6.56908 -29.34493,-14.67246 0,-8.10338 13.13817,-14.67247 29.34493,-14.67247 16.20676,0 29.34493,6.56909 29.34493,14.67247 z"
       transform="matrix(1,0,0,0.64759035,6.7175144,155.01025)" />
    <path
       style="fill:#000000;fill-opacity:1;stroke:none"
       d="m 368.13744,379.9586 c 0.19687,1.70117 1.57417,2.92304 3.07627,2.72911 4.72809,-0.61041 6.70019,1.94256 6.50332,0.2414 -0.19688,-1.70116 -2.3641,-7.0283 -7.21626,-6.40187 -1.50211,0.19393 -2.5602,1.7302 -2.36333,3.43136 z"
       id="path4510"
       inkscape:connector-curvature="0"
       sodipodi:nodetypes="sssss" />
    <path
       sodipodi:nodetypes="sssss"
       inkscape:connector-curvature="0"
       id="path4512"
       d="m 368.94721,379.70096 c 0,1.51328 1.22676,2.74004 2.74004,2.74004 4.76328,0 6.42754,2.46074 6.42754,0.94746 0,-1.51328 -1.53926,-6.42754 -6.42754,-6.42754 -1.51328,0 -2.74004,1.22676 -2.74004,2.74004 z"
       style="fill:#554400;fill-opacity:1;stroke:none" />
  </g>
  <g
     inkscape:groupmode="layer"
     id="layer6"
     inkscape:label="Pata 1"
     style="display:inline"
     sodipodi:insensitive="true"
     transform="translate(235.80966,113.00126)">
    <path
       inkscape:connector-curvature="0"
       id="path133-8"
       d="m 534.83466,791.0538 c 33.04585,-48.07429 120.45059,-44.34868 54.36422,-103.0071 -14.00482,-12.58627 -14.0238,-41.84933 -30.52756,-53.13499 -19.68829,-13.87398 -37.72994,-0.26844 -56.74801,-6.95588 -19.12216,-7.25094 -40.07177,-22.4043 -60.62395,-9.31649 -20.55104,13.08728 -19.06662,43.55529 -16.09789,83.37384 1.81327,28.70316 -19.04401,78.25692 -1.40292,103.58953 26.15222,39.36094 79.42217,30.45367 111.03611,-14.54891 z"
       style="fill:#aa8800;fill-opacity:1;stroke:#806600;stroke-width:7;stroke-linecap:round;stroke-linejoin:round;stroke-miterlimit:4;stroke-opacity:1;stroke-dasharray:none;display:inline" />
    <path
       style="opacity:0.05;fill:#ffffff;fill-opacity:1;stroke:none;display:inline"
       d="m 466.96875,629.5 c -4.93963,0.0147 -9.88427,1.2367 -14.8125,4.375 -17.52148,11.15813 -16.83225,37.19341 -13.71875,71.09375 2.34635,25.54742 -32.48756,79.47261 3.11583,106.90369 C 381.16394,707.27495 594.8441,690.50035 551.8125,647.46875 c -16.62469,-11.35073 -31.8879,-0.002 -47.96875,-5.65625 -11.71802,-4.44343 -24.25151,-12.34998 -36.875,-12.3125 z"
       id="path4552"
       inkscape:connector-curvature="0"
       sodipodi:nodetypes="scscccs" />
    <path
       sodipodi:type="arc"
       style="opacity:0.01000001;fill:#000000;fill-opacity:1;stroke:none"
       id="path4557"
       sodipodi:cx="500.99237"
       sodipodi:cy="786.39813"
       sodipodi:rx="30.935709"
       sodipodi:ry="24.707043"
       d="m 531.92808,786.39813 c 0,13.64533 -13.85039,24.70705 -30.93571,24.70705 -17.08532,0 -30.93571,-11.06172 -30.93571,-24.70705 0,-13.64532 13.85039,-24.70704 30.93571,-24.70704 17.08532,0 30.93571,11.06172 30.93571,24.70704 z"
       transform="matrix(0.91328913,0.5272877,-0.5,0.86602542,403.66212,-161.12921)" />
  </g>
  <g
     inkscape:groupmode="layer"
     id="layer8"
     inkscape:label="Asta"
     style="display:inline"
     sodipodi:insensitive="true"
     transform="translate(235.80966,113.00126)">
    <g
       id="g4571"
       transform="matrix(0.77850648,-0.68208396,0.68208396,0.77850648,-208.68467,128.97435)">
      <rect
         style="fill:#666666;fill-opacity:1;stroke:#434343;stroke-width:8;stroke-miterlimit:4;stroke-opacity:1;stroke-dasharray:none"
         id="rect4563"
         width="22.486126"
         height="896.02496"
         x="105.3705"
         y="-126.94182"
         transform="matrix(0.99999851,0.0017263,-0.00129353,0.99999916,0,0)"
         ry="13.506614" />
      <rect
         ry="13.506614"
         transform="matrix(0.99999851,0.0017263,-0.00129353,0.99999916,0,0)"
         y="-126.94182"
         x="105.3705"
         height="896.02496"
         width="22.486126"
         id="rect4561"
         style="fill:#666666;fill-opacity:1;stroke:none" />
      <path
         id="rect4565"
         d="m 117.75,-126.65625 0,895.6875 c 5.19766,-1.1871 9.11646,-6.64871 9.125,-13.25 l 1.125,-869 c 0.009,-7.09033 -4.47924,-12.84086 -10.25,-13.4375 z"
         style="opacity:0.25;fill:#ffffff;fill-opacity:1;stroke:none"
         inkscape:connector-curvature="0" />
    </g>
    <g
       id="g4011"
       transform="translate(-1.1744919,-4.6979538)">
      <path
         sodipodi:type="arc"
         style="fill:#434343;fill-opacity:1;stroke:none"
         id="path4007"
         sodipodi:cx="-281.12048"
         sodipodi:cy="31.276154"
         sodipodi:rx="28.651865"
         sodipodi:ry="28.651865"
         d="m -252.46862,31.276154 c 0,15.823988 -12.82788,28.651865 -28.65186,28.651865 -15.82399,0 -28.65187,-12.827877 -28.65187,-28.651865 0,-15.823989 12.82788,-28.6518654 28.65187,-28.6518654 15.82398,0 28.65186,12.8278764 28.65186,28.6518654 z"
         transform="matrix(1.1745085,0,0,1.1745085,129.19509,-85.972595)" />
      <path
         transform="translate(80.137113,-80.514635)"
         d="m -252.46862,31.276154 c 0,15.823988 -12.82788,28.651865 -28.65186,28.651865 -15.82399,0 -28.65187,-12.827877 -28.65187,-28.651865 0,-15.823989 12.82788,-28.6518654 28.65187,-28.6518654 15.82398,0 28.65186,12.8278764 28.65186,28.6518654 z"
         sodipodi:ry="28.651865"
         sodipodi:rx="28.651865"
         sodipodi:cy="31.276154"
         sodipodi:cx="-281.12048"
         id="path4005"
         style="fill:#666666;fill-opacity:1;stroke:none"
         sodipodi:type="arc" />
      <path
         sodipodi:type="arc"
         style="fill:#8c8c8c;fill-opacity:1;stroke:none"
         id="path4009"
         sodipodi:cx="-281.12048"
         sodipodi:cy="31.276154"
         sodipodi:rx="28.651865"
         sodipodi:ry="28.651865"
         d="m -252.46862,31.276154 c 0,15.823988 -12.82788,28.651865 -28.65186,28.651865 -15.82399,0 -28.65187,-12.827877 -28.65187,-28.651865 0,-15.823989 12.82788,-28.6518654 28.65187,-28.6518654 15.82398,0 28.65186,12.8278764 28.65186,28.6518654 z"
         transform="matrix(0.61608086,0,0,0.61608086,-27.375187,-79.926345)" />
    </g>
    <g
       id="g4026"
       transform="matrix(0.32419033,-0.28522899,0.28522899,0.32419033,-135.14515,-115.70705)">
      <path
         sodipodi:nodetypes="cscccsccc"
         inkscape:connector-curvature="0"
         id="rect4016"
         d="m -261.32372,103.96265 c 0,0 27.01324,6 40.51986,6 13.50662,0 40.51986,-6 40.51986,-6 2.92799,0 11.28519,2.35719 11.28519,5.28519 l 0,52.26475 c 0,10.94266 -30.01075,15.63467 -51.80505,15.63467 -21.82858,0 -51.80506,-4.92466 -51.80506,-15.63467 l 0,-52.26475 c 0,-2.928 8.3572,-5.28519 11.2852,-5.28519 z"
         style="fill:#434343;fill-opacity:1;stroke:none" />
      <path
         style="fill:#666666;fill-opacity:1;stroke:none"
         d="m -255.06644,111.37518 c 0,0 22.84172,4.92901 34.26258,4.92901 11.42086,0 34.26258,-4.92901 34.26258,-4.92901 2.47583,0 9.54247,1.93641 9.54247,4.3418 l 0,42.93557 c 0,8.98941 -25.37635,12.84391 -43.80505,12.84391 -18.4577,0 -43.80506,-4.04558 -43.80506,-12.84391 l 0,-42.93557 c 0,-2.40539 7.06664,-4.3418 9.54248,-4.3418 z"
         id="path4019"
         inkscape:connector-curvature="0"
         sodipodi:nodetypes="cscccsccc" />
      <path
         id="path4021"
         d="m -186.53125,111.375 c 0,0 -22.86039,4.9375 -34.28125,4.9375 -0.18849,0 -0.39919,-0.0286 -0.59375,-0.0312 l 0,55.21875 c 0.19539,8.9e-4 0.39984,0 0.59375,0 18.4287,0 43.8125,-3.85434 43.8125,-12.84375 l 0,-42.9375 c 0,-2.40539 -7.05542,-4.34375 -9.53125,-4.34375 z"
         style="fill:#8c8c8c;fill-opacity:1;stroke:none"
         inkscape:connector-curvature="0" />
    </g>
    <g
       transform="matrix(0.3257686,-0.28342505,0.28342505,0.3257686,178.86561,243.71851)"
       id="g4031">
      <path
         style="fill:#434343;fill-opacity:1;stroke:none"
         d="m -261.32372,103.96265 c 0,0 27.01324,6 40.51986,6 13.50662,0 40.51986,-6 40.51986,-6 2.92799,0 11.28519,2.35719 11.28519,5.28519 l 0,52.26475 c 0,10.94266 -30.01075,15.63467 -51.80505,15.63467 -21.82858,0 -51.80506,-4.92466 -51.80506,-15.63467 l 0,-52.26475 c 0,-2.928 8.3572,-5.28519 11.2852,-5.28519 z"
         id="path4033"
         inkscape:connector-curvature="0"
         sodipodi:nodetypes="cscccsccc" />
      <path
         sodipodi:nodetypes="cscccsccc"
         inkscape:connector-curvature="0"
         id="path4035"
         d="m -255.06644,111.37518 c 0,0 22.84172,4.92901 34.26258,4.92901 11.42086,0 34.26258,-4.92901 34.26258,-4.92901 2.47583,0 9.54247,1.93641 9.54247,4.3418 l 0,42.93557 c 0,8.98941 -25.37635,12.84391 -43.80505,12.84391 -18.4577,0 -43.80506,-4.04558 -43.80506,-12.84391 l 0,-42.93557 c 0,-2.40539 7.06664,-4.3418 9.54248,-4.3418 z"
         style="fill:#666666;fill-opacity:1;stroke:none" />
      <path
         inkscape:connector-curvature="0"
         style="fill:#8c8c8c;fill-opacity:1;stroke:none"
         d="m -186.53125,111.375 c 0,0 -22.86039,4.9375 -34.28125,4.9375 -0.18849,0 -0.39919,-0.0286 -0.59375,-0.0312 l 0,55.21875 c 0.19539,8.9e-4 0.39984,0 0.59375,0 18.4287,0 43.8125,-3.85434 43.8125,-12.84375 l 0,-42.9375 c 0,-2.40539 -7.05542,-4.34375 -9.53125,-4.34375 z"
         id="path4037" />
    </g>
    <path
       style="fill:#0c0c0c;fill-opacity:1;stroke:none;display:inline"
       d="m 321.125,533.71875 c -22.00721,0.65363 -18.85908,29.2436 9.21875,57.21875 16.06554,16.00678 44.34328,23.57426 75.25,24.125 L 345,540.0625 c -0.71536,-0.2931 -1.44189,-0.59003 -2.15625,-0.90625 -8.88604,-3.93352 -16.10907,-5.60411 -21.71875,-5.4375 z"
       id="path4177-1"
       inkscape:connector-curvature="0" />
    <path
       style="font-size:medium;font-style:normal;font-variant:normal;font-weight:normal;font-stretch:normal;text-indent:0;text-align:start;text-decoration:none;line-height:normal;letter-spacing:normal;word-spacing:normal;text-transform:none;direction:ltr;block-progression:tb;writing-mode:lr-tb;text-anchor:start;baseline-shift:baseline;color:#000000;fill:#000000;fill-opacity:1;fill-rule:nonzero;stroke:none;stroke-width:7;marker:none;visibility:visible;display:inline;overflow:visible;enable-background:accumulate;font-family:Sans;-inkscape-font-specification:Sans"
       d="m 125.34375,339.65625 c -5.44979,0.11394 -10.39568,3.10927 -14.40625,7.625 -4.01057,4.51573 -7.28252,10.65281 -9.625,17.9375 -0.16677,0.51863 -0.30107,0.97271 -0.4375,1.40625 l -0.90625,2.90625 5.02557,-2.87162 49.98616,23.88444 5.55077,7.83093 -2.46875,-7.71875 c -1.34771,-4.19385 -2.68139,-8.69554 -3.96875,-13.5 -3.45016,-12.87617 -7.63648,-22.05354 -12.4375,-28.21875 -4.80102,-6.16521 -10.5113,-9.40254 -16.3125,-9.28125 z m 0.125,7 c 3.17051,-0.0663 6.73021,1.55215 10.65625,6.59375 3.92604,5.0416 7.92387,13.42211 11.21875,25.71875 0.59415,2.21739 1.20393,4.15428 1.8125,6.25 l -40.5625,-19.3125 c 2.05637,-5.84587 4.67371,-10.74734 7.5625,-14 3.14395,-3.53996 6.33432,-5.18773 9.3125,-5.25 z"
       id="path4070"
       inkscape:connector-curvature="0"
       sodipodi:nodetypes="sssccccccssssssccss" />
    <path
       style="fill:#0c0c0c;fill-opacity:1;stroke:none"
       d="m 125.40625,343.15625 c -8.42797,0.17621 -16.29605,9.274 -20.75,23.125 -0.15095,0.46942 -0.28986,0.93708 -0.4375,1.40625 l 50.5,24.03125 c -1.36737,-4.25503 -2.69946,-8.80258 -4,-13.65625 -6.74504,-25.17281 -16.34079,-35.09383 -25.3125,-34.90625 z"
       id="path4059"
       inkscape:connector-curvature="0" />
  </g>
</svg>
